<svg width="252" height="250" viewBox="0 0 252 250" fill="none" xmlns="http://www.w3.org/2000/svg">
<g clip-path="url(#clip0_94_1211)">
<path d="M120.342 249.705C120.324 249.705 120.312 249.705 120.295 249.705C119.335 249.687 96.4842 249.216 70.5894 238.49C55.3222 232.17 42.2099 223.579 31.6118 212.954C18.3406 199.652 9.02608 183.142 3.93307 163.885C-4.42179 132.305 0.81836 98.2604 18.688 68.0245C37.4172 36.3323 68.3402 12.5175 101.395 4.3158C139.73 -5.19482 181.687 3.67901 210.897 27.4703C224.139 38.2545 234.354 51.6095 241.261 67.1578C248.75 84.0151 252.147 103.089 251.364 123.862C250.422 148.85 243.304 170.589 230.215 188.473C218.592 204.351 202.56 216.48 183.848 223.543C147.443 237.288 107.041 229.681 83.313 204.617C82.1943 203.437 82.2414 201.568 83.4249 200.448C84.6025 199.328 86.4689 199.375 87.5876 200.56C109.702 223.921 147.555 230.943 181.77 218.025C199.41 211.368 214.518 199.941 225.463 184.988C237.846 168.072 244.581 147.429 245.482 123.638C246.23 103.779 243.003 85.5835 235.885 69.5576C229.355 54.8642 219.699 42.2462 207.188 32.0517C179.385 9.40425 139.389 0.972687 102.814 10.047C71.2547 17.8772 41.7036 40.6778 23.7574 71.0316C6.69444 99.8936 1.67798 132.341 9.62658 162.382C14.4546 180.619 23.2511 196.232 35.7804 208.791C45.8251 218.862 58.2956 227.022 72.8385 233.042C97.7029 243.343 120.159 243.809 120.383 243.809C122.008 243.832 123.303 245.177 123.28 246.804C123.262 248.42 121.949 249.705 120.342 249.705Z" fill="#7843E9"/>
<path d="M134.028 66.0487C135.118 58.0417 139.295 50.8699 144.891 45.1212C147.698 42.2371 158.074 35.5472 160.816 41.6698C162.306 44.9971 162.166 48.7342 161.609 52.2431C160.343 60.23 156.065 68.4946 151.649 75.1428C146.643 82.6795 141.112 89.3438 135.013 96.0155C132.603 98.651 130.07 102.546 127.132 104.507M133.535 69.0069C133.535 59.5859 133.414 49.5216 129.349 40.9028C127.712 37.4336 124.046 34 120.045 34C115.857 34 109.831 35.5192 108.225 39.9715C106.375 45.0999 107.037 52.8129 107.541 58.1597C108.28 66.0005 112.447 74.0839 115.312 81.3333C117.844 87.7413 121.248 93.9387 124.943 99.7407C125.784 101.062 126.734 104.308 128.117 105" stroke="#EC4176" stroke-width="5" stroke-linecap="round"/>
</g>
<path d="M114.616 125.4H116.974L112.582 132.996V138H110.512V132.996L106.12 125.4H108.478L111.556 130.98L114.616 125.4ZM124.024 136.866C123.112 137.778 121.99 138.234 120.658 138.234C119.326 138.234 118.204 137.778 117.292 136.866C116.368 135.942 115.906 134.82 115.906 133.5C115.906 132.18 116.368 131.058 117.292 130.134C118.204 129.222 119.326 128.766 120.658 128.766C121.99 128.766 123.112 129.222 124.024 130.134C124.948 131.058 125.41 132.18 125.41 133.5C125.41 134.82 124.948 135.942 124.024 136.866ZM117.85 133.5C117.85 134.316 118.12 134.994 118.66 135.534C119.2 136.074 119.866 136.344 120.658 136.344C121.45 136.344 122.116 136.074 122.656 135.534C123.196 134.994 123.466 134.316 123.466 133.5C123.466 132.684 123.196 132.006 122.656 131.466C122.116 130.926 121.45 130.656 120.658 130.656C119.866 130.656 119.2 130.926 118.66 131.466C118.12 132.006 117.85 132.684 117.85 133.5ZM133.234 133.824V129H135.178V138H133.234V136.848C132.634 137.772 131.704 138.234 130.444 138.234C129.4 138.234 128.56 137.904 127.924 137.244C127.3 136.572 126.988 135.666 126.988 134.526V129H128.932V134.328C128.932 135 129.112 135.516 129.472 135.876C129.832 136.236 130.324 136.416 130.948 136.416C131.656 136.416 132.214 136.2 132.622 135.768C133.03 135.324 133.234 134.676 133.234 133.824ZM139.395 129V130.512C139.887 129.396 140.811 128.838 142.167 128.838V130.944C141.435 130.896 140.787 131.076 140.223 131.484C139.671 131.88 139.395 132.54 139.395 133.464V138H137.451V129H139.395ZM75.8012 154.166V156.038C74.3852 155.918 73.6772 156.512 73.6772 157.82V158H75.8012V159.872H73.6772V167H71.7332V159.872H70.3652V158H71.7332V157.82C71.7332 156.572 72.0812 155.63 72.7772 154.994C73.4732 154.358 74.4812 154.082 75.8012 154.166ZM83.0047 162.824V158H84.9487V167H83.0047V165.848C82.4047 166.772 81.4747 167.234 80.2147 167.234C79.1707 167.234 78.3307 166.904 77.6947 166.244C77.0707 165.572 76.7587 164.666 76.7587 163.526V158H78.7027V163.328C78.7027 164 78.8827 164.516 79.2427 164.876C79.6027 165.236 80.0947 165.416 80.7187 165.416C81.4267 165.416 81.9847 165.2 82.3927 164.768C82.8007 164.324 83.0047 163.676 83.0047 162.824ZM92.2439 158V159.872H90.0119V164.192C90.0119 164.564 90.0959 164.834 90.2639 165.002C90.4319 165.158 90.6779 165.248 91.0019 165.272C91.3379 165.284 91.7519 165.278 92.2439 165.254V167C90.7559 167.18 89.6879 167.054 89.0399 166.622C88.3919 166.178 88.0679 165.368 88.0679 164.192V159.872H86.4119V158H88.0679V156.056L90.0119 155.48V158H92.2439ZM100.161 162.824V158H102.105V167H100.161V165.848C99.5609 166.772 98.6309 167.234 97.3709 167.234C96.3269 167.234 95.4869 166.904 94.8509 166.244C94.2269 165.572 93.9149 164.666 93.9149 163.526V158H95.8589V163.328C95.8589 164 96.0389 164.516 96.3989 164.876C96.7589 165.236 97.2509 165.416 97.8749 165.416C98.5829 165.416 99.1409 165.2 99.5489 164.768C99.9569 164.324 100.161 163.676 100.161 162.824ZM106.322 158V159.512C106.814 158.396 107.738 157.838 109.094 157.838V159.944C108.362 159.896 107.714 160.076 107.15 160.484C106.598 160.88 106.322 161.54 106.322 162.464V167H104.378V158H106.322ZM118.803 163.328H111.639C111.783 164 112.107 164.522 112.611 164.894C113.127 165.266 113.763 165.452 114.519 165.452C115.539 165.452 116.313 165.08 116.841 164.336L118.443 165.272C117.567 166.58 116.253 167.234 114.501 167.234C113.049 167.234 111.867 166.79 110.955 165.902C110.055 165.002 109.605 163.868 109.605 162.5C109.605 161.168 110.049 160.046 110.937 159.134C111.813 158.222 112.953 157.766 114.357 157.766C115.665 157.766 116.745 158.228 117.597 159.152C118.449 160.076 118.875 161.198 118.875 162.518C118.875 162.758 118.851 163.028 118.803 163.328ZM111.621 161.744H116.913C116.781 161.036 116.481 160.49 116.013 160.106C115.557 159.722 114.999 159.53 114.339 159.53C113.619 159.53 113.019 159.728 112.539 160.124C112.059 160.52 111.753 161.06 111.621 161.744ZM130.179 157.766C131.403 157.766 132.459 158.228 133.347 159.152C134.223 160.064 134.661 161.18 134.661 162.5C134.661 163.832 134.223 164.954 133.347 165.866C132.471 166.778 131.415 167.234 130.179 167.234C128.823 167.234 127.773 166.73 127.029 165.722V170.6H125.085V158H127.029V159.296C127.761 158.276 128.811 157.766 130.179 157.766ZM127.839 164.57C128.379 165.11 129.057 165.38 129.873 165.38C130.689 165.38 131.367 165.11 131.907 164.57C132.447 164.018 132.717 163.328 132.717 162.5C132.717 161.672 132.447 160.988 131.907 160.448C131.367 159.896 130.689 159.62 129.873 159.62C129.057 159.62 128.379 159.896 127.839 160.448C127.299 160.988 127.029 161.672 127.029 162.5C127.029 163.316 127.299 164.006 127.839 164.57ZM138.367 158V159.512C138.859 158.396 139.783 157.838 141.139 157.838V159.944C140.407 159.896 139.759 160.076 139.195 160.484C138.643 160.88 138.367 161.54 138.367 162.464V167H136.423V158H138.367ZM149.768 165.866C148.856 166.778 147.734 167.234 146.402 167.234C145.07 167.234 143.948 166.778 143.036 165.866C142.112 164.942 141.65 163.82 141.65 162.5C141.65 161.18 142.112 160.058 143.036 159.134C143.948 158.222 145.07 157.766 146.402 157.766C147.734 157.766 148.856 158.222 149.768 159.134C150.692 160.058 151.154 161.18 151.154 162.5C151.154 163.82 150.692 164.942 149.768 165.866ZM143.594 162.5C143.594 163.316 143.864 163.994 144.404 164.534C144.944 165.074 145.61 165.344 146.402 165.344C147.194 165.344 147.86 165.074 148.4 164.534C148.94 163.994 149.21 163.316 149.21 162.5C149.21 161.684 148.94 161.006 148.4 160.466C147.86 159.926 147.194 159.656 146.402 159.656C145.61 159.656 144.944 159.926 144.404 160.466C143.864 161.006 143.594 161.684 143.594 162.5ZM154.808 156.29C154.568 156.53 154.28 156.65 153.944 156.65C153.608 156.65 153.314 156.53 153.062 156.29C152.822 156.038 152.702 155.744 152.702 155.408C152.702 155.072 152.822 154.784 153.062 154.544C153.314 154.292 153.608 154.166 153.944 154.166C154.28 154.166 154.568 154.292 154.808 154.544C155.06 154.784 155.186 155.072 155.186 155.408C155.186 155.744 155.06 156.038 154.808 156.29ZM152.972 167.36V158H154.916V167.36C154.916 169.856 153.686 171.014 151.226 170.834V168.962C151.826 169.022 152.264 168.926 152.54 168.674C152.828 168.422 152.972 167.984 152.972 167.36ZM165.877 163.328H158.713C158.857 164 159.181 164.522 159.685 164.894C160.201 165.266 160.837 165.452 161.593 165.452C162.613 165.452 163.387 165.08 163.915 164.336L165.517 165.272C164.641 166.58 163.327 167.234 161.575 167.234C160.123 167.234 158.941 166.79 158.029 165.902C157.129 165.002 156.679 163.868 156.679 162.5C156.679 161.168 157.123 160.046 158.011 159.134C158.887 158.222 160.027 157.766 161.431 157.766C162.739 157.766 163.819 158.228 164.671 159.152C165.523 160.076 165.949 161.198 165.949 162.518C165.949 162.758 165.925 163.028 165.877 163.328ZM158.695 161.744H163.987C163.855 161.036 163.555 160.49 163.087 160.106C162.631 159.722 162.073 159.53 161.413 159.53C160.693 159.53 160.093 159.728 159.613 160.124C159.133 160.52 158.827 161.06 158.695 161.744ZM171.855 167.234C170.499 167.234 169.365 166.778 168.453 165.866C167.553 164.942 167.103 163.82 167.103 162.5C167.103 161.156 167.553 160.034 168.453 159.134C169.365 158.222 170.499 157.766 171.855 157.766C172.731 157.766 173.529 157.976 174.249 158.396C174.969 158.816 175.509 159.38 175.869 160.088L174.195 161.06C173.991 160.628 173.679 160.292 173.259 160.052C172.851 159.8 172.377 159.674 171.837 159.674C171.045 159.674 170.379 159.944 169.839 160.484C169.311 161.036 169.047 161.708 169.047 162.5C169.047 163.292 169.311 163.964 169.839 164.516C170.379 165.056 171.045 165.326 171.837 165.326C172.365 165.326 172.839 165.206 173.259 164.966C173.691 164.714 174.015 164.372 174.231 163.94L175.905 164.894C175.521 165.614 174.963 166.184 174.231 166.604C173.511 167.024 172.719 167.234 171.855 167.234ZM182.332 158V159.872H180.1V164.192C180.1 164.564 180.184 164.834 180.352 165.002C180.52 165.158 180.766 165.248 181.09 165.272C181.426 165.284 181.84 165.278 182.332 165.254V167C180.844 167.18 179.776 167.054 179.128 166.622C178.48 166.178 178.156 165.368 178.156 164.192V159.872H176.5V158H178.156V156.056L180.1 155.48V158H182.332Z" fill="white"/>
<defs>
<clipPath id="clip0_94_1211">
<rect width="252" height="250" fill="white"/>
</clipPath>
</defs>
</svg>
