<svg width="252" height="250" viewBox="0 0 252 250" fill="none" xmlns="http://www.w3.org/2000/svg">
<g clip-path="url(#clip0_94_1211)">
<path d="M120.342 249.705C120.324 249.705 120.312 249.705 120.295 249.705C119.335 249.687 96.4842 249.216 70.5894 238.49C55.3222 232.17 42.2099 223.579 31.6118 212.954C18.3406 199.652 9.02608 183.142 3.93307 163.885C-4.42179 132.305 0.81836 98.2604 18.688 68.0245C37.4172 36.3323 68.3402 12.5175 101.395 4.3158C139.73 -5.19482 181.687 3.67901 210.897 27.4703C224.139 38.2545 234.354 51.6095 241.261 67.1578C248.75 84.0151 252.147 103.089 251.364 123.862C250.422 148.85 243.304 170.589 230.215 188.473C218.592 204.351 202.56 216.48 183.848 223.543C147.443 237.288 107.041 229.681 83.313 204.617C82.1943 203.437 82.2414 201.568 83.4249 200.448C84.6025 199.328 86.4689 199.375 87.5876 200.56C109.702 223.921 147.555 230.943 181.77 218.025C199.41 211.368 214.518 199.941 225.463 184.988C237.846 168.072 244.581 147.429 245.482 123.638C246.23 103.779 243.003 85.5835 235.885 69.5576C229.355 54.8642 219.699 42.2462 207.188 32.0517C179.385 9.40425 139.389 0.972687 102.814 10.047C71.2547 17.8772 41.7036 40.6778 23.7574 71.0316C6.69444 99.8936 1.67798 132.341 9.62658 162.382C14.4546 180.619 23.2511 196.232 35.7804 208.791C45.8251 218.862 58.2956 227.022 72.8385 233.042C97.7029 243.343 120.159 243.809 120.383 243.809C122.008 243.832 123.303 245.177 123.28 246.804C123.262 248.42 121.949 249.705 120.342 249.705Z" fill="#7843E9"/>
<path d="M134.028 66.0487C135.118 58.0417 139.295 50.8699 144.891 45.1212C147.698 42.2371 158.074 35.5472 160.816 41.6698C162.306 44.9971 162.166 48.7342 161.609 52.2431C160.343 60.23 156.065 68.4946 151.649 75.1428C146.643 82.6795 141.112 89.3438 135.013 96.0155C132.603 98.651 130.07 102.546 127.132 104.507M133.535 69.0069C133.535 59.5859 133.414 49.5216 129.349 40.9028C127.712 37.4336 124.046 34 120.045 34C115.857 34 109.831 35.5192 108.225 39.9715C106.375 45.0999 107.037 52.8129 107.541 58.1597C108.28 66.0005 112.447 74.0839 115.312 81.3333C117.844 87.7413 121.248 93.9387 124.943 99.7407C125.784 101.062 126.734 104.308 128.117 105" stroke="#EC4176" stroke-width="5" stroke-linecap="round"/>
</g>
<path d="M114.293 133.466C114.845 133.754 115.277 134.15 115.589 134.654C115.901 135.158 116.057 135.74 116.057 136.4C116.057 137.432 115.691 138.29 114.959 138.974C114.227 139.658 113.333 140 112.277 140H106.877V127.4H111.881C112.913 127.4 113.783 127.736 114.491 128.408C115.211 129.068 115.571 129.896 115.571 130.892C115.571 131.984 115.145 132.842 114.293 133.466ZM111.881 129.344H108.947V132.656H111.881C112.337 132.656 112.721 132.5 113.033 132.188C113.345 131.864 113.501 131.468 113.501 131C113.501 130.532 113.345 130.142 113.033 129.83C112.721 129.506 112.337 129.344 111.881 129.344ZM112.277 138.056C112.757 138.056 113.159 137.888 113.483 137.552C113.819 137.204 113.987 136.784 113.987 136.292C113.987 135.8 113.819 135.386 113.483 135.05C113.159 134.702 112.757 134.528 112.277 134.528H108.947V138.056H112.277ZM124.953 131H126.897V140H124.953V138.704C124.221 139.724 123.171 140.234 121.803 140.234C120.567 140.234 119.511 139.778 118.635 138.866C117.759 137.942 117.321 136.82 117.321 135.5C117.321 134.168 117.759 133.046 118.635 132.134C119.511 131.222 120.567 130.766 121.803 130.766C123.171 130.766 124.221 131.27 124.953 132.278V131ZM120.075 137.57C120.615 138.11 121.293 138.38 122.109 138.38C122.925 138.38 123.603 138.11 124.143 137.57C124.683 137.018 124.953 136.328 124.953 135.5C124.953 134.672 124.683 133.988 124.143 133.448C123.603 132.896 122.925 132.62 122.109 132.62C121.293 132.62 120.615 132.896 120.075 133.448C119.535 133.988 119.265 134.672 119.265 135.5C119.265 136.328 119.535 137.018 120.075 137.57ZM139.819 131H141.763V140H129.163V131H131.107V138.164H134.491V131H136.435V138.164H139.819V131ZM62.3588 169.234C60.9788 169.234 59.8508 168.79 58.9748 167.902C58.1108 167.002 57.6788 165.856 57.6788 164.464C57.6788 162.94 57.9068 161.764 58.3628 160.936C58.8188 160.096 59.7428 159.334 61.1348 158.65C61.3628 158.542 61.6988 158.386 62.1428 158.182C62.5988 157.978 62.9108 157.834 63.0788 157.75C63.2468 157.654 63.4568 157.522 63.7088 157.354C63.9608 157.174 64.1468 156.988 64.2668 156.796C64.3868 156.592 64.4828 156.352 64.5548 156.076L66.1388 156.994C66.0908 157.258 66.0128 157.504 65.9048 157.732C65.7968 157.948 65.6408 158.152 65.4368 158.344C65.2328 158.536 65.0528 158.692 64.8968 158.812C64.7528 158.932 64.5068 159.076 64.1588 159.244C63.8108 159.412 63.5528 159.532 63.3848 159.604C63.2288 159.676 62.9288 159.802 62.4848 159.982C61.6928 160.294 61.1108 160.618 60.7388 160.954C60.3788 161.278 60.1268 161.686 59.9828 162.178C60.7028 161.362 61.6808 160.954 62.9168 160.954C63.9728 160.954 64.8908 161.332 65.6708 162.088C66.4628 162.844 66.8588 163.822 66.8588 165.022C66.8588 166.246 66.4388 167.254 65.5988 168.046C64.7708 168.838 63.6908 169.234 62.3588 169.234ZM62.3408 167.416C63.0968 167.416 63.7148 167.194 64.1948 166.75C64.6748 166.294 64.9148 165.718 64.9148 165.022C64.9148 164.314 64.6748 163.732 64.1948 163.276C63.7268 162.82 63.1148 162.592 62.3588 162.592C61.6868 162.592 61.0808 162.808 60.5408 163.24C60.0008 163.66 59.7308 164.224 59.7308 164.932C59.7308 165.652 59.9828 166.246 60.4868 166.714C60.9908 167.182 61.6088 167.416 62.3408 167.416ZM74.1102 160H76.1802L72.7242 169.288C72.3042 170.428 71.7162 171.28 70.9602 171.844C70.2042 172.408 69.3282 172.66 68.3322 172.6V170.782C68.9442 170.818 69.4362 170.692 69.8082 170.404C70.1922 170.128 70.4982 169.678 70.7262 169.054L70.7802 168.928L67.0002 160H69.0702L71.8062 166.552L74.1102 160ZM84.7708 167.164H85.9768V171.412H84.0688V169H77.8948V171.412H75.9868V167.164H77.0848C77.6368 166.384 77.9128 165.298 77.9128 163.906V160H84.7708V167.164ZM79.2268 167.164H82.8628V161.782H79.8208V163.906C79.8208 165.19 79.6228 166.276 79.2268 167.164ZM93.2703 160H95.3403L91.8843 169.288C91.4643 170.428 90.8763 171.28 90.1203 171.844C89.3643 172.408 88.4883 172.66 87.4923 172.6V170.782C88.1043 170.818 88.5963 170.692 88.9683 170.404C89.3523 170.128 89.6583 169.678 89.8863 169.054L89.9403 168.928L86.1603 160H88.2303L90.9663 166.552L93.2703 160ZM108.976 167.164H110.182V171.412H108.274V169H96.5559V160H98.4999V167.164H101.794V160H103.738V167.164H107.032V160H108.976V167.164ZM118.277 160H119.771V169H117.863V163.276L113.255 169H111.761V160H113.669V165.706L118.277 160ZM123.503 158.74V157.048H128.543V158.74H123.503ZM128.543 160H130.037V169H128.129V163.276L123.521 169H122.027V160H123.935V165.706L128.543 160ZM144.802 160V169H142.858V161.836H138.736V169H136.792V160H144.802ZM152.152 159.766C153.388 159.766 154.444 160.228 155.32 161.152C156.196 162.064 156.634 163.18 156.634 164.5C156.634 165.832 156.196 166.954 155.32 167.866C154.444 168.778 153.388 169.234 152.152 169.234C150.784 169.234 149.734 168.73 149.002 167.722V172.6H147.058V160H149.002V161.296C149.734 160.276 150.784 159.766 152.152 159.766ZM149.812 166.57C150.352 167.11 151.03 167.38 151.846 167.38C152.662 167.38 153.34 167.11 153.88 166.57C154.42 166.018 154.69 165.328 154.69 164.5C154.69 163.672 154.42 162.988 153.88 162.448C153.34 161.896 152.662 161.62 151.846 161.62C151.03 161.62 150.352 161.896 149.812 162.448C149.272 162.988 149.002 163.672 149.002 164.5C149.002 165.328 149.272 166.018 149.812 166.57ZM162.644 169.234C161.324 169.234 160.202 168.778 159.278 167.866C158.354 166.954 157.892 165.832 157.892 164.5C157.892 163.168 158.354 162.046 159.278 161.134C160.202 160.222 161.324 159.766 162.644 159.766C163.976 159.766 165.098 160.222 166.01 161.134C166.934 162.046 167.396 163.168 167.396 164.5C167.396 165.832 166.934 166.954 166.01 167.866C165.098 168.778 163.976 169.234 162.644 169.234ZM160.646 166.534C161.186 167.074 161.852 167.344 162.644 167.344C163.436 167.344 164.102 167.074 164.642 166.534C165.182 165.994 165.452 165.316 165.452 164.5C165.452 163.684 165.182 163.006 164.642 162.466C164.102 161.926 163.436 161.656 162.644 161.656C161.852 161.656 161.186 161.926 160.646 162.466C160.106 163.006 159.836 163.684 159.836 164.5C159.836 165.316 160.106 165.994 160.646 166.534ZM170.684 165.328C170.828 166.012 171.158 166.54 171.674 166.912C172.19 167.272 172.82 167.452 173.564 167.452C174.596 167.452 175.37 167.08 175.886 166.336L177.488 167.272C176.6 168.58 175.286 169.234 173.546 169.234C172.082 169.234 170.9 168.79 170 167.902C169.1 167.002 168.65 165.868 168.65 164.5C168.65 163.156 169.094 162.034 169.982 161.134C170.87 160.222 172.01 159.766 173.402 159.766C174.722 159.766 175.802 160.228 176.642 161.152C177.494 162.076 177.92 163.198 177.92 164.518C177.92 164.722 177.896 164.992 177.848 165.328H170.684ZM170.666 163.744H175.958C175.826 163.012 175.52 162.46 175.04 162.088C174.572 161.716 174.02 161.53 173.384 161.53C172.664 161.53 172.064 161.728 171.584 162.124C171.104 162.52 170.798 163.06 170.666 163.744ZM187.586 169H185.264L181.574 164.842V169H179.63V160H181.574V163.978L185.066 160H187.442L183.482 164.41L187.586 169ZM195.77 160V161.872H192.836V169H190.892V161.872H187.94V160H195.77Z" fill="white"/>
<defs>
<clipPath id="clip0_94_1211">
<rect width="252" height="250" fill="white"/>
</clipPath>
</defs>
</svg>
