<svg width="272" height="66" viewBox="0 0 272 66" fill="none" xmlns="http://www.w3.org/2000/svg">
<path fill-rule="evenodd" clip-rule="evenodd" d="M9.33173 16.2568C3.71988 21.7551 0.35841 29.5097 0.677061 37.9791C0.966337 45.6677 4.23566 52.541 9.33173 57.5293V16.2568ZM22.9357 8.77069V45.7869H41.2517V58.9349H10.8748C16.1835 63.4325 23.1236 66.0367 30.6243 65.7545L218.031 58.7036C215.316 57.7678 212.945 56.3249 210.916 54.3749C207.065 50.5749 205.14 45.7869 205.14 40.0109C205.14 34.2856 207.04 29.4976 210.84 25.6469C214.64 21.7962 219.478 19.8709 225.356 19.8709C231.03 19.8709 235.717 21.7709 239.416 25.5709C243.114 29.3709 244.964 34.1336 244.964 39.8589C244.964 41.5309 244.786 43.1016 244.432 44.5709H218.212C219.478 47.6616 222.316 49.2069 226.724 49.2069C229.46 49.2069 231.765 48.3202 233.64 46.5469L242.76 52.9309C240.997 55.1461 238.859 56.8407 236.346 58.0145L243.548 57.7435C245.913 57.6545 248.202 57.2834 250.382 56.6638V3.45489H256.169C251.781 1.08419 246.721 -0.180276 241.376 0.0208108L28.4525 8.03182C26.5588 8.10307 24.7146 8.3551 22.9357 8.77069ZM262.998 8.5735V49.1907C268.411 43.7142 271.636 36.0987 271.323 27.7963C271.04 20.2746 267.905 13.5331 262.998 8.5735ZM84.7594 20.9349H72.1434V24.4309C69.5594 21.3909 65.962 19.8709 61.3514 19.8709C56.2847 19.8709 52.0287 21.7962 48.5834 25.6469C45.1887 29.4469 43.4914 34.2096 43.4914 39.9349C43.4914 45.6602 45.1887 50.4482 48.5834 54.2989C52.0287 58.0989 56.2847 59.9989 61.3514 59.9989C65.962 59.9989 69.5594 58.4789 72.1434 55.4389V58.9349H84.7594V20.9349ZM64.1634 48.2189C61.782 48.2189 59.8567 47.4589 58.3874 45.9389C56.918 44.4189 56.1834 42.4176 56.1834 39.9349C56.1834 37.4522 56.918 35.4509 58.3874 33.9309C59.8567 32.4109 61.782 31.6509 64.1634 31.6509C66.5447 31.6509 68.47 32.4109 69.9394 33.9309C71.4087 35.4509 72.1434 37.4522 72.1434 39.9349C72.1434 42.4176 71.4087 44.4189 69.9394 45.9389C68.47 47.4589 66.5447 48.2189 64.1634 48.2189ZM108.945 22.2269C106.817 23.5949 105.399 25.5202 104.689 28.0029V20.9349H92.0732V58.9349H104.689V43.2029C104.689 39.7576 105.855 37.2749 108.185 35.7549C110.567 34.2349 113.201 33.7029 116.089 34.1589V20.1749C113.455 20.1749 111.073 20.8589 108.945 22.2269ZM159.349 20.9349H146.733V24.4309C144.149 21.3909 140.552 19.8709 135.941 19.8709C130.875 19.8709 126.619 21.7962 123.173 25.6469C119.779 29.4469 118.081 34.2096 118.081 39.9349C118.081 45.6602 119.779 50.4482 123.173 54.2989C126.619 58.0989 130.875 59.9989 135.941 59.9989C140.552 59.9989 144.149 58.4789 146.733 55.4389V58.9349H159.349V20.9349ZM138.753 48.2189C136.372 48.2189 134.447 47.4589 132.977 45.9389C131.508 44.4189 130.773 42.4176 130.773 39.9349C130.773 37.4522 131.508 35.4509 132.977 33.9309C134.447 32.4109 136.372 31.6509 138.753 31.6509C141.135 31.6509 143.06 32.4109 144.529 33.9309C145.999 35.4509 146.733 37.4522 146.733 39.9349C146.733 42.4176 145.999 44.4189 144.529 45.9389C143.06 47.4589 141.135 48.2189 138.753 48.2189ZM205.119 20.9349H191.135L184.067 42.7469L176.999 20.9349H163.015L177.227 58.9349H190.907L205.119 20.9349ZM225.508 30.5109C229.257 30.5109 231.638 32.2842 232.652 35.8309H218.06C219.124 32.2842 221.606 30.5109 225.508 30.5109Z" fill="#EC4176"/>
<path fill-rule="evenodd" clip-rule="evenodd" d="M9.33173 16.2568C3.71988 21.7551 0.35841 29.5097 0.677061 37.9791C0.966337 45.6677 4.23566 52.541 9.33173 57.5293V16.2568ZM22.9357 8.77069V45.7869H41.2517V58.9349H10.8748C16.1835 63.4325 23.1236 66.0367 30.6243 65.7545L218.031 58.7036C215.316 57.7678 212.945 56.3249 210.916 54.3749C207.065 50.5749 205.14 45.7869 205.14 40.0109C205.14 34.2856 207.04 29.4976 210.84 25.6469C214.64 21.7962 219.478 19.8709 225.356 19.8709C231.03 19.8709 235.717 21.7709 239.416 25.5709C243.114 29.3709 244.964 34.1336 244.964 39.8589C244.964 41.5309 244.786 43.1016 244.432 44.5709H218.212C219.478 47.6616 222.316 49.2069 226.724 49.2069C229.46 49.2069 231.765 48.3202 233.64 46.5469L242.76 52.9309C240.997 55.1461 238.859 56.8407 236.346 58.0145L243.548 57.7435C245.913 57.6545 248.202 57.2834 250.382 56.6638V3.45489H256.169C251.781 1.08419 246.721 -0.180276 241.376 0.0208108L28.4525 8.03182C26.5588 8.10307 24.7146 8.3551 22.9357 8.77069ZM262.998 8.5735V49.1907C268.411 43.7142 271.636 36.0987 271.323 27.7963C271.04 20.2746 267.905 13.5331 262.998 8.5735ZM84.7594 20.9349H72.1434V24.4309C69.5594 21.3909 65.962 19.8709 61.3514 19.8709C56.2847 19.8709 52.0287 21.7962 48.5834 25.6469C45.1887 29.4469 43.4914 34.2096 43.4914 39.9349C43.4914 45.6602 45.1887 50.4482 48.5834 54.2989C52.0287 58.0989 56.2847 59.9989 61.3514 59.9989C65.962 59.9989 69.5594 58.4789 72.1434 55.4389V58.9349H84.7594V20.9349ZM64.1634 48.2189C61.782 48.2189 59.8567 47.4589 58.3874 45.9389C56.918 44.4189 56.1834 42.4176 56.1834 39.9349C56.1834 37.4522 56.918 35.4509 58.3874 33.9309C59.8567 32.4109 61.782 31.6509 64.1634 31.6509C66.5447 31.6509 68.47 32.4109 69.9394 33.9309C71.4087 35.4509 72.1434 37.4522 72.1434 39.9349C72.1434 42.4176 71.4087 44.4189 69.9394 45.9389C68.47 47.4589 66.5447 48.2189 64.1634 48.2189ZM108.945 22.2269C106.817 23.5949 105.399 25.5202 104.689 28.0029V20.9349H92.0732V58.9349H104.689V43.2029C104.689 39.7576 105.855 37.2749 108.185 35.7549C110.567 34.2349 113.201 33.7029 116.089 34.1589V20.1749C113.455 20.1749 111.073 20.8589 108.945 22.2269ZM159.349 20.9349H146.733V24.4309C144.149 21.3909 140.552 19.8709 135.941 19.8709C130.875 19.8709 126.619 21.7962 123.173 25.6469C119.779 29.4469 118.081 34.2096 118.081 39.9349C118.081 45.6602 119.779 50.4482 123.173 54.2989C126.619 58.0989 130.875 59.9989 135.941 59.9989C140.552 59.9989 144.149 58.4789 146.733 55.4389V58.9349H159.349V20.9349ZM138.753 48.2189C136.372 48.2189 134.447 47.4589 132.977 45.9389C131.508 44.4189 130.773 42.4176 130.773 39.9349C130.773 37.4522 131.508 35.4509 132.977 33.9309C134.447 32.4109 136.372 31.6509 138.753 31.6509C141.135 31.6509 143.06 32.4109 144.529 33.9309C145.999 35.4509 146.733 37.4522 146.733 39.9349C146.733 42.4176 145.999 44.4189 144.529 45.9389C143.06 47.4589 141.135 48.2189 138.753 48.2189ZM205.119 20.9349H191.135L184.067 42.7469L176.999 20.9349H163.015L177.227 58.9349H190.907L205.119 20.9349ZM225.508 30.5109C229.257 30.5109 231.638 32.2842 232.652 35.8309H218.06C219.124 32.2842 221.606 30.5109 225.508 30.5109Z" fill="url(#paint0_linear_186_5140)"/>
<path fill-rule="evenodd" clip-rule="evenodd" d="M10.8429 58.98C10.3118 58.5301 9.79712 58.0612 9.2998 57.5744V16.3019C12.9949 12.6817 17.6656 10.0396 22.9038 8.81579V45.832H41.2198V58.98H10.8429ZM236.314 58.0596L217.999 58.7487C215.285 57.8129 212.913 56.37 210.884 54.42C207.033 50.62 205.108 45.832 205.108 40.056C205.108 34.3307 207.008 29.5427 210.808 25.692C214.608 21.8413 219.447 19.916 225.324 19.916C230.999 19.916 235.685 21.816 239.384 25.616C243.083 29.416 244.932 34.1787 244.932 39.904C244.932 41.576 244.755 43.1467 244.4 44.616H218.18C219.447 47.7067 222.284 49.252 226.692 49.252C229.428 49.252 231.733 48.3653 233.608 46.592L242.728 52.976C240.965 55.1913 238.827 56.8858 236.314 58.0596ZM262.966 49.2358C259.528 52.7132 255.208 55.3281 250.35 56.7089V3.5H256.137C258.66 4.8632 260.961 6.59217 262.966 8.6186V49.2358ZM84.7274 20.98H72.1114V24.476C69.5274 21.436 65.9301 19.916 61.3194 19.916C56.2528 19.916 51.9968 21.8413 48.5514 25.692C45.1568 29.492 43.4594 34.2547 43.4594 39.98C43.4594 45.7053 45.1568 50.4933 48.5514 54.344C51.9968 58.144 56.2528 60.044 61.3194 60.044C65.9301 60.044 69.5274 58.524 72.1114 55.484V58.98H84.7274V20.98ZM64.1314 48.264C61.7501 48.264 59.8248 47.504 58.3554 45.984C56.8861 44.464 56.1514 42.4627 56.1514 39.98C56.1514 37.4973 56.8861 35.496 58.3554 33.976C59.8248 32.456 61.7501 31.696 64.1314 31.696C66.5128 31.696 68.4381 32.456 69.9074 33.976C71.3768 35.496 72.1114 37.4973 72.1114 39.98C72.1114 42.4627 71.3768 44.464 69.9074 45.984C68.4381 47.504 66.5128 48.264 64.1314 48.264ZM108.913 22.272C106.785 23.64 105.367 25.5653 104.657 28.048V20.98H92.0412V58.98H104.657V43.248C104.657 39.8027 105.823 37.32 108.153 35.8C110.535 34.28 113.169 33.748 116.057 34.204V20.22C113.423 20.22 111.041 20.904 108.913 22.272ZM159.317 20.98H146.701V24.476C144.117 21.436 140.52 19.916 135.909 19.916C130.843 19.916 126.587 21.8413 123.141 25.692C119.747 29.492 118.049 34.2547 118.049 39.98C118.049 45.7053 119.747 50.4933 123.141 54.344C126.587 58.144 130.843 60.044 135.909 60.044C140.52 60.044 144.117 58.524 146.701 55.484V58.98H159.317V20.98ZM138.721 48.264C136.34 48.264 134.415 47.504 132.945 45.984C131.476 44.464 130.741 42.4627 130.741 39.98C130.741 37.4973 131.476 35.496 132.945 33.976C134.415 32.456 136.34 31.696 138.721 31.696C141.103 31.696 143.028 32.456 144.497 33.976C145.967 35.496 146.701 37.4973 146.701 39.98C146.701 42.4627 145.967 44.464 144.497 45.984C143.028 47.504 141.103 48.264 138.721 48.264ZM205.087 20.98H191.103L184.035 42.792L176.967 20.98H162.983L177.195 58.98H190.875L205.087 20.98ZM225.476 30.556C229.225 30.556 231.607 32.3293 232.62 35.876H218.028C219.092 32.3293 221.575 30.556 225.476 30.556Z" fill="white"/>
<defs>
<linearGradient id="paint0_linear_186_5140" x1="-83.4741" y1="27.5751" x2="428.653" y2="27.5751" gradientUnits="userSpaceOnUse">
<stop offset="0.01" stop-color="#0797FF"/>
<stop offset="0.744903" stop-color="#894EF6"/>
</linearGradient>
</defs>
</svg>
