<svg width="382" height="61" viewBox="0 0 382 61" fill="none" xmlns="http://www.w3.org/2000/svg">
<rect x="0.731445" y="14.718" width="378.79" height="47.081" rx="23.5405" transform="rotate(-2.15467 0.731445 14.718)" fill="url(#paint0_radial_112_279)"/>
<path d="M22.2776 20V27.632H15.4136V44H7.44556V27.632H0.485563V20H22.2776ZM31.3064 34.928C32.1064 36.88 33.8984 37.856 36.6824 37.856C38.4104 37.856 39.8664 37.296 41.0504 36.176L46.8104 40.208C44.4424 43.184 41.0024 44.672 36.4904 44.672C32.4264 44.672 29.1624 43.488 26.6984 41.12C24.2664 38.72 23.0504 35.696 23.0504 32.048C23.0504 28.432 24.2504 25.408 26.6504 22.976C29.0504 20.544 32.1064 19.328 35.8184 19.328C39.4024 19.328 42.3624 20.528 44.6984 22.928C47.0344 25.328 48.2024 28.336 48.2024 31.952C48.2024 33.008 48.0904 34 47.8664 34.928H31.3064ZM31.2104 29.408H40.4264C39.7864 27.168 38.2824 26.048 35.9144 26.048C33.4504 26.048 31.8824 27.168 31.2104 29.408ZM63.5306 44.72C59.5626 44.72 56.3786 43.504 53.9786 41.072C51.6106 38.608 50.4266 35.392 50.4266 31.424C50.4266 27.392 51.0666 24.208 52.3466 21.872C53.6586 19.504 55.9786 17.504 59.3066 15.872C62.8906 14.112 65.1146 12.896 65.9786 12.224C66.9066 11.456 67.6266 10.48 68.1386 9.296L74.6666 13.04C74.1866 14.832 73.2746 16.256 71.9306 17.312C70.6186 18.368 68.6346 19.424 65.9786 20.48C63.8666 21.312 62.3466 22.064 61.4186 22.736C60.5226 23.376 59.8826 24.144 59.4986 25.04C61.0986 23.664 63.1626 22.976 65.6906 22.976C68.3466 22.976 70.7146 23.936 72.7946 25.856C74.9066 27.776 75.9626 30.32 75.9626 33.488C75.9626 36.752 74.8266 39.44 72.5546 41.552C70.3146 43.664 67.3066 44.72 63.5306 44.72ZM60.1226 36.56C61.0186 37.392 62.1226 37.808 63.4346 37.808C64.7466 37.808 65.8186 37.408 66.6506 36.608C67.5146 35.776 67.9466 34.752 67.9466 33.536C67.9466 32.288 67.4986 31.264 66.6026 30.464C65.7386 29.632 64.6346 29.216 63.2906 29.216C62.0746 29.216 61.0186 29.6 60.1226 30.368C59.2266 31.104 58.7786 32.112 58.7786 33.392C58.7786 34.672 59.2266 35.728 60.1226 36.56ZM85.9627 34.928C86.7627 36.88 88.5547 37.856 91.3387 37.856C93.0667 37.856 94.5227 37.296 95.7067 36.176L101.467 40.208C99.0987 43.184 95.6587 44.672 91.1467 44.672C87.0827 44.672 83.8187 43.488 81.3547 41.12C78.9227 38.72 77.7067 35.696 77.7067 32.048C77.7067 28.432 78.9067 25.408 81.3067 22.976C83.7067 20.544 86.7627 19.328 90.4747 19.328C94.0587 19.328 97.0187 20.528 99.3547 22.928C101.691 25.328 102.859 28.336 102.859 31.952C102.859 33.008 102.747 34 102.523 34.928H85.9627ZM85.8667 29.408H95.0827C94.4427 27.168 92.9387 26.048 90.5707 26.048C88.1067 26.048 86.5387 27.168 85.8667 29.408ZM140.148 20V44H132.18V27.536H125.124V44H117.156V20H140.148ZM156.382 44.672C152.83 44.672 149.806 43.456 147.31 41.024C144.814 38.56 143.566 35.552 143.566 32C143.566 28.448 144.814 25.456 147.31 23.024C149.806 20.56 152.83 19.328 156.382 19.328C159.966 19.328 162.99 20.56 165.454 23.024C167.95 25.456 169.198 28.448 169.198 32C169.198 35.552 167.95 38.56 165.454 41.024C162.99 43.456 159.966 44.672 156.382 44.672ZM156.382 36.992C157.79 36.992 158.942 36.528 159.838 35.6C160.766 34.672 161.23 33.472 161.23 32C161.23 30.528 160.766 29.328 159.838 28.4C158.942 27.472 157.79 27.008 156.382 27.008C155.006 27.008 153.854 27.472 152.926 28.4C152.03 29.328 151.582 30.528 151.582 32C151.582 33.472 152.03 34.672 152.926 35.6C153.854 36.528 155.006 36.992 156.382 36.992ZM187.726 20H195.694V44H187.726V35.744H180.67V44H172.702V20H180.67V28.256H187.726V20ZM215.096 19.328C218.296 19.328 220.968 20.544 223.112 22.976C225.288 25.376 226.376 28.384 226.376 32C226.376 35.616 225.288 38.64 223.112 41.072C220.968 43.472 218.296 44.672 215.096 44.672C212.184 44.672 209.912 43.712 208.28 41.792V53.6H200.312V20H208.28V22.208C209.912 20.288 212.184 19.328 215.096 19.328ZM209.672 35.792C210.6 36.752 211.816 37.232 213.32 37.232C214.824 37.232 216.04 36.752 216.968 35.792C217.896 34.832 218.36 33.568 218.36 32C218.36 30.432 217.896 29.168 216.968 28.208C216.04 27.248 214.824 26.768 213.32 26.768C211.816 26.768 210.6 27.248 209.672 28.208C208.744 29.168 208.28 30.432 208.28 32C208.28 33.568 208.744 34.832 209.672 35.792ZM246.787 20H254.755V44H246.787V41.792C245.155 43.712 242.883 44.672 239.971 44.672C236.771 44.672 234.083 43.472 231.907 41.072C229.763 38.64 228.691 35.616 228.691 32C228.691 28.384 229.763 25.376 231.907 22.976C234.083 20.544 236.771 19.328 239.971 19.328C242.883 19.328 245.155 20.288 246.787 22.208V20ZM238.099 35.792C239.027 36.752 240.243 37.232 241.747 37.232C243.251 37.232 244.467 36.752 245.395 35.792C246.323 34.832 246.787 33.568 246.787 32C246.787 30.432 246.323 29.168 245.395 28.208C244.467 27.248 243.251 26.768 241.747 26.768C240.243 26.768 239.027 27.248 238.099 28.208C237.171 29.168 236.707 30.432 236.707 32C236.707 33.568 237.171 34.832 238.099 35.792ZM277.806 31.76C280.046 32.816 281.166 34.592 281.166 37.088C281.166 39.2 280.446 40.88 279.006 42.128C277.566 43.376 275.486 44 272.766 44H259.374V20H271.95C274.638 20 276.702 20.624 278.142 21.872C279.582 23.12 280.302 24.8 280.302 26.912C280.302 29.024 279.47 30.64 277.806 31.76ZM270.75 25.952H267.006V29.12H270.75C272.03 29.12 272.67 28.608 272.67 27.584C272.67 26.496 272.03 25.952 270.75 25.952ZM271.374 37.952C272.622 37.952 273.246 37.392 273.246 36.272C273.246 35.216 272.622 34.688 271.374 34.688H267.006V37.952H271.374ZM301.4 20H307.544V44H299.768V32.768L290.456 44H284.312V20H292.088V31.232L301.4 20ZM332.028 20V27.632H325.164V44H317.196V27.632H310.236V20H332.028ZM345.568 44.672C341.92 44.672 338.88 43.456 336.448 41.024C334.016 38.592 332.8 35.584 332.8 32C332.8 28.416 334.016 25.408 336.448 22.976C338.88 20.544 341.92 19.328 345.568 19.328C347.936 19.328 350.08 19.888 352 21.008C353.952 22.128 355.456 23.632 356.512 25.52L349.696 29.456C348.832 27.888 347.44 27.104 345.52 27.104C344.176 27.104 343.056 27.568 342.16 28.496C341.264 29.392 340.816 30.56 340.816 32C340.816 33.44 341.264 34.624 342.16 35.552C343.056 36.448 344.176 36.896 345.52 36.896C347.504 36.896 348.896 36.096 349.696 34.496L356.512 38.432C355.456 40.352 353.952 41.872 352 42.992C350.08 44.112 347.936 44.672 345.568 44.672ZM379.584 20V44H371.712V37.184H370.608L366.048 44H356.976L362.592 35.984C361.216 35.216 360.144 34.192 359.376 32.912C358.64 31.6 358.272 30.192 358.272 28.688C358.272 26.192 359.088 24.128 360.72 22.496C362.384 20.832 364.624 20 367.44 20H379.584ZM368.304 26.72C367.632 26.72 367.088 26.912 366.672 27.296C366.256 27.648 366.048 28.16 366.048 28.832C366.048 29.472 366.256 29.968 366.672 30.32C367.088 30.672 367.632 30.848 368.304 30.848H371.712V26.72H368.304Z" fill="#1A1B41"/>
<defs>
<radialGradient id="paint0_radial_112_279" cx="0" cy="0" r="1" gradientUnits="userSpaceOnUse" gradientTransform="translate(353.318 34.4558) rotate(178) scale(352.802 51.7917)">
<stop stop-color="#4EF6EC"/>
<stop offset="1" stop-color="#0797FF"/>
</radialGradient>
</defs>
</svg>
