<svg width="280" height="46" viewBox="0 0 280 46" fill="none" xmlns="http://www.w3.org/2000/svg">
<path d="M93.3531 34.1118L95.0103 28.6428H105.521L107.178 34.1118H114.828L105.135 3.01259H95.8956L85.6348 34.1118H93.3531ZM103.864 23.1506H96.8491L100.413 11.7723L103.864 23.1506ZM126.746 34.1118V2.13199H119.482V34.1118H126.746ZM141.729 45.1889L141.728 33.1508L141.751 33.1719C141.979 33.387 142.223 33.5798 142.483 33.7503L142.614 33.8338C143.719 34.5135 145.096 34.8534 146.746 34.8534C148.637 34.8534 150.412 34.3745 152.069 33.4166C153.726 32.4588 155.066 31.0761 156.087 29.2685C157.109 27.461 157.619 25.2749 157.619 22.7103C157.619 20.1303 157.116 17.9365 156.11 16.129C155.103 14.3214 153.798 12.9387 152.194 11.9809C150.59 11.023 148.895 10.5441 147.109 10.5441C145.762 10.5441 144.491 10.8956 143.295 11.5985C142.434 12.1046 141.693 12.833 141.072 13.7836L140.982 13.9237L140.389 11.2856H134.464V45.1889H141.729ZM145.588 28.0866C144.892 28.0866 144.249 27.9553 143.658 27.6927C143.068 27.4301 142.599 27.067 142.251 26.6035C141.903 26.1401 141.729 25.5993 141.729 24.9814H141.728V21.2272L141.731 21.0679C141.751 20.3837 141.898 19.7779 142.174 19.2503L142.24 19.13C142.58 18.5352 143.053 18.0756 143.658 17.7511C144.264 17.4267 144.952 17.2645 145.724 17.2645C146.678 17.2645 147.499 17.4885 148.187 17.9365C148.876 18.3846 149.409 19.018 149.788 19.8368C150.166 20.6556 150.355 21.6134 150.355 22.7103C150.355 24.0081 150.102 25.0509 149.595 25.8388C149.088 26.6267 148.467 27.1983 147.733 27.5537C146.999 27.909 146.284 28.0866 145.588 28.0866ZM167.721 8.34257C169.053 8.34257 170.105 7.98338 170.877 7.26499C171.649 6.5466 172.034 5.53081 172.034 4.21763C172.034 2.93535 171.649 1.91184 170.877 1.1471C170.105 0.382368 169.053 0 167.721 0C166.344 0 165.281 0.382368 164.532 1.1471C163.783 1.91184 163.408 2.93535 163.408 4.21763C163.408 5.53081 163.783 6.5466 164.532 7.26499C165.281 7.98338 166.344 8.34257 167.721 8.34257ZM171.353 34.1118V11.1466H164.089V34.1118H171.353ZM186.972 34.1118V24.4947L186.973 24.2588C186.99 22.7001 187.179 21.4256 187.54 20.4351L187.596 20.2887C188.012 19.2304 188.568 18.4618 189.264 17.9829C189.961 17.5039 190.725 17.2645 191.557 17.2645C192.375 17.2645 193.071 17.5542 193.646 18.1335C194.221 18.7128 194.508 19.605 194.508 20.8101V34.1118H201.818V20.8101C201.818 18.8171 201.531 17.0482 200.955 15.5033C200.38 13.9584 199.484 12.7456 198.265 11.865C197.047 10.9844 195.477 10.5441 193.555 10.5441C191.875 10.5441 190.373 11.023 189.049 11.9809C188.227 12.5754 187.513 13.3812 186.907 14.3983L186.844 14.5051L186.109 11.2856H179.707V34.1118H186.972ZM217.868 34.8534C219.714 34.8534 221.345 34.5135 222.76 33.8338C224.175 33.154 225.325 32.2348 226.21 31.0761C227.096 29.9174 227.652 28.6274 227.879 27.206H220.66C220.463 27.8086 220.115 28.2489 219.616 28.527C219.116 28.805 218.534 28.9441 217.868 28.9441C217.05 28.9441 216.373 28.7471 215.836 28.3531C215.299 27.9592 214.894 27.4069 214.621 26.6962C214.349 25.9856 214.213 25.1436 214.213 24.1703L214.213 24.2166H227.652C228.01 22.5774 228.08 20.9832 227.861 19.4341L227.822 19.1763C227.557 17.5464 226.997 16.0826 226.142 14.7849C225.287 13.4872 224.163 12.4559 222.771 11.6912C221.379 10.9264 219.744 10.5441 217.868 10.5441C215.976 10.5441 214.205 11.023 212.556 11.9809C210.906 12.9387 209.574 14.3175 208.56 16.1174C207.546 17.9172 207.039 20.0762 207.039 22.5945C207.039 25.1127 207.55 27.291 208.572 29.1295C209.593 30.9679 210.929 32.3815 212.578 33.3703C214.228 34.359 215.991 34.8534 217.868 34.8534ZM221.318 20.4625H214.245L214.246 20.4561C214.301 19.8223 214.425 19.2589 214.618 18.7659L214.678 18.6202C214.988 17.9018 215.427 17.3533 215.995 16.9748C216.562 16.5963 217.232 16.4071 218.004 16.4071C218.7 16.4071 219.271 16.55 219.718 16.8358C220.164 17.1216 220.508 17.5001 220.751 17.9713C220.993 18.4425 221.155 18.9562 221.239 19.5123C221.28 19.7904 221.306 20.0666 221.315 20.3408L221.318 20.4625ZM235.597 34.529C237.035 34.529 238.223 34.0848 239.161 33.1965C240.099 32.3081 240.569 31.1765 240.569 29.8015C240.569 28.4265 240.099 27.2833 239.161 26.3718C238.223 25.4603 237.035 25.0045 235.597 25.0045C234.159 25.0045 232.99 25.4603 232.09 26.3718C231.189 27.2833 230.739 28.4265 230.739 29.8015C230.739 31.161 231.189 32.2888 232.09 33.1849C232.99 34.0809 234.159 34.529 235.597 34.529ZM249.467 8.34257C250.799 8.34257 251.851 7.98338 252.623 7.26499C253.395 6.5466 253.78 5.53081 253.78 4.21763C253.78 2.93535 253.395 1.91184 252.623 1.1471C251.851 0.382368 250.799 0 249.467 0C248.135 0 247.076 0.382368 246.289 1.1471C245.502 1.91184 245.109 2.93535 245.109 4.21763C245.109 5.53081 245.502 6.5466 246.289 7.26499C247.076 7.98338 248.135 8.34257 249.467 8.34257ZM245.131 46C247.78 46 249.785 45.2623 251.147 43.7869C252.509 42.3115 253.19 39.8203 253.19 36.3134V11.1929H245.881V36.1743C245.881 37.5029 245.65 38.3913 245.188 38.8393C244.727 39.2873 244.027 39.5113 243.088 39.5113C242.362 39.5113 241.575 39.4032 240.727 39.1869C239.88 38.9706 239.131 38.7311 238.48 38.4685V44.8413C239.524 45.1348 240.561 45.4013 241.59 45.6408C242.619 45.8803 243.8 46 245.131 46ZM270.171 34.8534C272.047 34.8534 273.727 34.4981 275.21 33.7874C276.693 33.0767 277.862 32.1537 278.717 31.0181C279.572 29.8826 280 28.6814 280 27.4146C280 26.0242 279.561 24.8655 278.683 23.9385C277.806 23.0116 276.602 22.2391 275.074 21.6212L268.899 19.0952C267.946 18.7553 267.469 18.2919 267.469 17.7048C267.469 17.2722 267.696 16.9246 268.15 16.662C268.604 16.3993 269.225 16.268 270.012 16.268C270.965 16.268 271.646 16.4495 272.055 16.8126C272.463 17.1757 272.668 17.6044 272.668 18.0987H279.319C279.304 15.905 278.494 14.0974 276.89 12.6761C275.286 11.2547 272.993 10.5441 270.012 10.5441C266.833 10.5441 264.329 11.1698 262.498 12.4212C260.666 13.6725 259.751 15.3102 259.751 17.334C259.751 18.7708 260.186 20.0106 261.056 21.0534C261.926 22.0962 263.164 22.9575 264.768 23.6373L270.193 25.7924C270.768 26.0242 271.192 26.2559 271.464 26.4877C271.737 26.7194 271.873 27.0284 271.873 27.4146C271.873 27.7081 271.775 27.9824 271.578 28.2373C271.381 28.4922 271.086 28.6969 270.693 28.8514C270.299 29.0059 269.8 29.0831 269.194 29.0831C268.196 29.0831 267.405 28.9286 266.822 28.6196C266.239 28.3107 265.933 27.7545 265.903 26.9511H259.342C259.327 28.7278 259.777 30.1993 260.693 31.3657C261.608 32.5322 262.884 33.405 264.518 33.9844C266.152 34.5637 268.037 34.8534 270.171 34.8534Z" fill="white"/>
<path fill-rule="evenodd" clip-rule="evenodd" d="M57.5994 0.953402L74.0563 17.6795L57.5994 34.4056L41.1424 17.6795L57.5994 0.953402Z" fill="#77C1D2"/>
<path fill-rule="evenodd" clip-rule="evenodd" d="M16.457 0.953402L50.5743 35.6287H17.6604L0 17.6795L16.457 0.953402Z" fill="white"/>
</svg>
