<svg width="280" height="78" viewBox="0 0 280 78" fill="none" xmlns="http://www.w3.org/2000/svg">
<path fill-rule="evenodd" clip-rule="evenodd" d="M75.7843 17.6456C75.8124 17.7496 75.8268 17.8568 75.8271 17.9646V34.7071C75.8271 34.9219 75.7703 35.133 75.6625 35.319C75.5547 35.5049 75.3997 35.6591 75.2132 35.766L61.15 43.8565V59.8925C61.15 60.3289 60.9179 60.7318 60.5392 60.9515L31.1836 77.8374C31.1164 77.8756 31.0431 77.9 30.9698 77.9259C30.9423 77.9351 30.9163 77.9519 30.8873 77.9595C30.6821 78.0135 30.4664 78.0135 30.2612 77.9595C30.2276 77.9503 30.1971 77.932 30.165 77.9198C30.0978 77.8954 30.0275 77.874 29.9634 77.8374L0.613898 60.9515C0.427449 60.8445 0.272529 60.6902 0.164751 60.5043C0.056974 60.3184 0.000147732 60.1074 0 59.8925V9.66504C0 9.55517 0.0152711 9.44835 0.042759 9.34459C0.0519217 9.30949 0.0733012 9.27745 0.0855181 9.24235C0.108425 9.17827 0.129804 9.11265 0.163401 9.05314C0.186307 9.01346 0.219904 8.98142 0.247392 8.9448C0.282515 8.89597 0.314584 8.84561 0.355816 8.80289C0.39094 8.76779 0.436753 8.74185 0.476458 8.71133C0.520744 8.67471 0.560449 8.63503 0.610844 8.60604L15.2879 0.163078C15.4737 0.0562332 15.6843 0 15.8987 0C16.1131 0 16.3238 0.0562332 16.5096 0.163078L31.1851 8.60604H31.1881C31.237 8.63656 31.2782 8.67471 31.3225 8.70981C31.3622 8.74032 31.4065 8.76779 31.4416 8.80136C31.4844 8.84561 31.5149 8.89597 31.5516 8.9448C31.5776 8.98142 31.6127 9.01346 31.6341 9.05314C31.6692 9.11418 31.689 9.17827 31.7135 9.24235C31.7257 9.27745 31.7471 9.30949 31.7562 9.34612C31.7843 9.4501 31.7987 9.55732 31.799 9.66504V41.0366L44.0281 34.0005V17.963C44.0281 17.8562 44.0433 17.7479 44.0708 17.6456C44.0815 17.609 44.1014 17.577 44.1136 17.5419C44.138 17.4778 44.1594 17.4122 44.193 17.3527C44.2159 17.313 44.2495 17.2809 44.2755 17.2443C44.3121 17.1955 44.3427 17.1451 44.3854 17.1024C44.4205 17.0673 44.4648 17.0414 44.5045 17.0109C44.5503 16.9742 44.5901 16.9346 44.6389 16.9056L59.3175 8.4626C59.5033 8.35561 59.7139 8.29929 59.9283 8.29929C60.1428 8.29929 60.3534 8.35561 60.5392 8.4626L75.2147 16.9056C75.2666 16.9361 75.3063 16.9742 75.3521 17.0093C75.3903 17.0399 75.4346 17.0673 75.4697 17.1009C75.5125 17.1451 75.543 17.1955 75.5797 17.2443C75.6072 17.2809 75.6408 17.313 75.6621 17.3527C75.6973 17.4122 75.7171 17.4778 75.7415 17.5419C75.7553 17.577 75.7751 17.609 75.7843 17.6456ZM73.3806 34.0005V20.078L61.15 27.114V41.0366L73.3822 34.0005H73.3806ZM58.7051 59.186V45.2543L31.7975 60.6021V74.665L58.7051 59.186ZM2.44643 11.7784V59.186L29.351 74.6635V60.6036L15.2955 52.655L15.2909 52.652L15.2848 52.6489C15.2375 52.6215 15.1978 52.5818 15.1535 52.5482C15.1153 52.5177 15.071 52.4933 15.0374 52.4597L15.0344 52.4551C14.9947 52.417 14.9672 52.3697 14.9336 52.327C14.9031 52.2858 14.8664 52.2507 14.842 52.2079L14.8404 52.2033C14.813 52.1576 14.7962 52.1026 14.7763 52.0508C14.7565 52.005 14.7305 51.9623 14.7183 51.9134C14.703 51.8554 14.7 51.7929 14.6938 51.7334C14.6877 51.6876 14.6755 51.6418 14.6755 51.596V18.8145L2.44643 11.7784ZM15.9003 2.63203L3.6727 9.66504L15.8972 16.698L28.1232 9.66351L15.8972 2.63203H15.9003ZM29.3526 42.4435V11.7784L17.1219 18.8145V49.4796L29.3526 42.4435ZM59.9283 10.9316L47.7023 17.9646L59.9283 24.9976L72.1528 17.963L59.9283 10.9316ZM58.7051 27.114L46.4745 20.078V34.0005L58.7051 41.0366V27.114ZM30.5727 58.4887L57.4697 43.147L45.2528 36.1185L18.3665 51.5854L30.5727 58.4887Z" fill="#FF2D20"/>
<path fill-rule="evenodd" clip-rule="evenodd" d="M114.187 18.1845V53.351H126.92V59.4181H107.406V18.1845H114.187ZM150.852 35.6793V31.9682H157.278V59.4197H150.854V55.7071C149.988 57.0819 148.762 58.1623 147.169 58.9466C145.578 59.7325 143.976 60.1246 142.365 60.1246C140.28 60.1246 138.374 59.7432 136.646 58.9771C134.961 58.2431 133.445 57.1699 132.194 55.8246C130.954 54.4864 129.976 52.9287 129.308 51.2315C128.612 49.4682 128.261 47.5878 128.274 45.6924C128.274 43.7697 128.618 41.9325 129.306 40.1838C129.97 38.475 130.949 36.9065 132.194 35.5602C133.446 34.2157 134.961 33.1431 136.646 32.4092C138.374 31.6432 140.28 31.2617 142.365 31.2617C143.976 31.2617 145.578 31.6539 147.169 32.4397C148.76 33.2256 149.987 34.3044 150.852 35.6793ZM150.263 49.051C150.659 47.9761 150.859 46.8392 150.854 45.6939C150.854 44.5144 150.655 43.3959 150.263 42.3369C149.895 41.3172 149.335 40.3772 148.614 39.5673C147.894 38.773 147.021 38.1316 146.048 37.6813C145.046 37.2113 143.936 36.9748 142.719 36.9748C141.499 36.9748 140.398 37.2113 139.416 37.6813C138.455 38.1371 137.593 38.778 136.881 39.5673C136.162 40.373 135.612 41.3141 135.262 42.3354C134.884 43.4141 134.694 44.5495 134.7 45.6924C134.7 46.8704 134.886 47.9905 135.261 49.0495C135.633 50.1115 136.174 51.0332 136.882 51.819C137.595 52.6087 138.456 53.2497 139.417 53.7051C140.398 54.1766 141.499 54.4116 142.717 54.4116C143.936 54.4116 145.046 54.1766 146.048 53.7051C147.022 53.2552 147.894 52.6137 148.614 51.819C149.335 51.0097 149.895 50.0702 150.263 49.051ZM162.348 31.9682H179.799V38.2871H168.773V59.4212H162.348V31.9682ZM203.084 35.6793V31.9682H209.51V59.4197H203.084V55.7071C202.22 57.0819 200.992 58.1623 199.399 58.9466C197.808 59.7325 196.208 60.1246 194.595 60.1246C192.512 60.1246 190.606 59.7432 188.877 58.9771C187.193 58.2431 185.677 57.1699 184.426 55.8246C183.186 54.4865 182.206 52.9288 181.538 51.2315C180.843 49.4681 180.492 47.5877 180.506 45.6924C180.506 43.7697 180.849 41.9325 181.538 40.1838C182.201 38.4752 183.18 36.9066 184.424 35.5602C185.676 34.2155 187.192 33.1429 188.877 32.4092C190.606 31.6432 192.512 31.2617 194.595 31.2617C196.206 31.2617 197.808 31.6539 199.399 32.4397C200.992 33.2256 202.22 34.3044 203.084 35.6793ZM202.495 49.051C202.89 47.976 203.09 46.8391 203.084 45.6939C203.084 44.5144 202.886 43.3959 202.495 42.3369C202.126 41.3172 201.567 40.3772 200.845 39.5673C200.126 38.773 199.253 38.1316 198.28 37.6813C197.278 37.2113 196.166 36.9748 194.949 36.9748C193.731 36.9748 192.63 37.2113 191.648 37.6813C190.687 38.1371 189.825 38.778 189.113 39.5673C188.393 40.3729 187.842 41.314 187.492 42.3354C187.115 43.4142 186.926 44.5496 186.932 45.6924C186.932 46.8704 187.117 47.9905 187.492 49.0495C187.865 50.1115 188.406 51.0332 189.113 51.819C189.825 52.6087 190.686 53.2497 191.648 53.7051C192.63 54.1766 193.731 54.4116 194.949 54.4116C196.166 54.4116 197.278 54.1766 198.28 53.7051C199.253 53.2552 200.126 52.6137 200.845 51.819C201.567 51.0097 202.126 50.0702 202.495 49.051ZM235.271 31.9682H241.78L231.235 59.4197H223.156L212.61 31.9682H219.119L227.196 52.9894L235.271 31.9682ZM255.795 31.2617C264.544 31.2617 270.511 39.0104 269.39 48.079H248.073C248.073 50.4472 250.466 55.025 256.148 55.025C261.035 55.025 264.31 50.7295 264.312 50.7264L268.654 54.0835C264.772 58.2233 261.594 60.1262 256.617 60.1262C247.725 60.1262 241.697 54.5047 241.697 45.6939C241.697 37.724 247.928 31.2617 255.795 31.2617ZM248.09 43.3074H263.489C263.442 42.7794 262.606 36.3614 255.743 36.3614C248.879 36.3614 248.138 42.7794 248.09 43.3074ZM273.574 59.4181V18.1845H280V59.4181H273.574Z" fill="#FF2D20"/>
</svg>
