<svg width="67" height="70" viewBox="0 0 67 70" fill="none" xmlns="http://www.w3.org/2000/svg">
<mask id="mask0_314_432" style="mask-type:alpha" maskUnits="userSpaceOnUse" x="-1" y="0" width="68" height="67">
<path d="M35.181 51.1258C48.5412 54.7048 62.2738 46.7783 65.8537 33.4214C66.0161 32.8152 66.1549 32.2083 66.2705 31.6017C66.4634 35.0551 66.1192 38.5977 65.1749 42.1209C60.397 59.9478 42.0685 70.5271 24.2372 65.7504C6.40586 60.9737 -4.17606 42.6497 0.60183 24.8228C5.37973 6.99587 23.7081 -3.58344 41.5395 1.19329C42.4506 1.43734 43.3427 1.71676 44.2148 2.02968C32.1897 0.783546 20.701 8.41323 17.472 20.4607C13.8922 33.8177 21.8207 47.5469 35.181 51.1258Z" fill="#D9D9D9"/>
</mask>
<g mask="url(#mask0_314_432)">
<path d="M62.7409 31.4171C62.7496 25.5067 61.0799 19.7154 57.9257 14.7165C60.6909 19.5135 61.5285 25.1823 60.2685 30.5736C59.0084 35.9651 55.7451 40.6758 51.1399 43.7512C46.5347 46.8265 40.9323 48.0361 35.468 47.135C30.0038 46.2339 25.0867 43.2895 21.7135 38.8985C18.3401 34.5075 16.7629 28.9985 17.3015 23.4882C17.8402 17.9778 20.4543 12.8782 24.6141 9.22322C28.7739 5.5682 34.1681 3.63116 39.7034 3.8047C45.2387 3.97824 50.501 6.24938 54.4235 10.1578C49.4647 4.78681 42.7852 1.31629 35.5389 0.345973C28.2926 -0.624352 20.9348 0.966465 14.7371 4.84353C8.53942 8.7206 3.89107 14.6404 1.59533 21.5798C-0.700421 28.5193 -0.499337 36.0425 2.16382 42.8496C4.82698 49.6565 9.7849 55.3197 16.1808 58.8603C22.5769 62.401 30.009 63.5967 37.1931 62.2408C44.3772 60.885 50.862 57.0628 55.5267 51.4347C60.1914 45.8067 62.7431 38.7264 62.7409 31.4171Z" fill="url(#paint0_radial_314_432)"/>
<path d="M62.7408 31.4171C62.7496 25.5067 61.0798 19.7153 57.9256 14.7165C60.6909 19.5134 61.5284 25.1823 60.2684 30.5736C59.0083 35.9651 55.745 40.6758 51.1399 43.7511C46.5347 46.8263 40.9322 48.0361 35.468 47.135C30.0038 46.2339 25.0867 43.2895 21.7135 38.8985C18.3401 34.5075 16.7628 28.9985 17.3015 23.4882C17.8401 17.9778 20.4542 12.8782 24.614 9.22321C28.7739 5.56819 34.1681 3.63114 39.7034 3.80468C45.2387 3.97822 50.5009 6.24936 54.4235 10.1578C52.5326 8.10966 50.3786 6.32114 48.0177 4.83895C40.4263 2.65678 32.2836 3.51108 25.3107 7.2213C18.3378 10.9315 13.081 17.2069 10.6515 24.7211C8.222 32.2353 8.81007 40.3996 12.2915 47.4882C15.7728 54.5769 21.8747 60.0345 29.3074 62.7076C29.9879 62.7514 30.6764 62.7774 31.3688 62.7774C35.4885 62.778 39.5679 61.9672 43.374 60.3914C47.1803 58.8157 50.6388 56.5058 53.552 53.5936C56.4652 50.6815 58.7761 47.2242 60.3528 43.4191C61.9294 39.614 62.7408 35.5357 62.7408 31.4171Z" fill="url(#paint1_radial_314_432)"/>
<path d="M62.7408 31.4171C62.7496 25.5067 61.0798 19.7153 57.9256 14.7165C60.6909 19.5134 61.5284 25.1823 60.2684 30.5736C59.0083 35.9651 55.745 40.6758 51.1399 43.7511C46.5347 46.8263 40.9322 48.0361 35.468 47.135C30.0038 46.2339 25.0867 43.2895 21.7135 38.8985C18.3401 34.5075 16.7628 28.9985 17.3015 23.4882C17.8401 17.9778 20.4542 12.8782 24.614 9.22321C28.7739 5.56819 34.1681 3.63114 39.7034 3.80468C45.2387 3.97822 50.5009 6.24936 54.4235 10.1578C52.5326 8.10966 50.3786 6.32114 48.0177 4.83895C40.4263 2.65678 32.2836 3.51108 25.3107 7.2213C18.3378 10.9315 13.081 17.2069 10.6515 24.7211C8.222 32.2353 8.81007 40.3996 12.2915 47.4882C15.7728 54.5769 21.8747 60.0345 29.3074 62.7076C29.9879 62.7514 30.6764 62.7774 31.3688 62.7774C35.4885 62.778 39.5679 61.9672 43.374 60.3914C47.1803 58.8157 50.6388 56.5058 53.552 53.5936C56.4652 50.6815 58.7761 47.2242 60.3528 43.4191C61.9294 39.614 62.7408 35.5357 62.7408 31.4171Z" fill="url(#paint2_radial_314_432)"/>
<path d="M57.0514 37.8013C54.5329 41.5119 50.9305 44.3551 46.7357 45.9428C42.5409 47.5306 37.9583 47.7856 33.6132 46.673C29.2682 45.5604 25.3723 43.1345 22.4574 39.7263C19.5425 36.3182 17.7505 32.0937 17.3262 27.6296C16.9017 23.1655 17.8655 18.6793 20.086 14.783C22.3064 10.8869 25.6754 7.7706 29.733 5.85957C33.7906 3.94853 38.3393 3.33583 42.7581 4.10509C47.1769 4.87434 51.2507 6.98808 54.4233 10.1578C51.5947 7.09036 48.1821 4.61821 44.3855 2.8862C40.589 1.15419 36.4849 0.197157 32.3136 0.0711811C28.1424 -0.0547946 23.9879 0.652823 20.0937 2.15257C16.1995 3.65231 12.6439 5.91402 9.63521 8.80515C6.08635 15.0796 5.11379 22.4869 6.92269 29.4644C8.73159 36.442 13.1805 42.4445 19.3311 46.2056C25.4816 49.9669 32.8529 51.1928 39.8902 49.6249C46.9274 48.0569 53.0805 43.8176 57.0514 37.8013Z" fill="url(#paint3_radial_314_432)"/>
<path d="M58.2451 35.8321C60.3722 31.9664 61.543 27.6478 61.6595 23.2373C60.8483 20.2251 59.5897 17.3515 57.9258 14.7125C59.7636 17.9169 60.7569 21.5357 60.8129 25.2291C60.8687 28.9225 59.9852 32.5696 58.2451 35.8282V35.8321Z" fill="url(#paint4_radial_314_432)"/>
<path d="M62.7408 31.4171C62.7496 25.5067 61.0798 19.7153 57.9256 14.7165C60.6909 19.5134 61.5284 25.1823 60.2684 30.5736C59.0083 35.9651 55.745 40.6758 51.1399 43.7511C46.5347 46.8263 40.9322 48.0361 35.468 47.135C30.0038 46.2339 25.0867 43.2895 21.7135 38.8985C18.3401 34.5075 16.7628 28.9985 17.3015 23.4882C17.8401 17.9778 20.4542 12.8782 24.614 9.22321C28.7739 5.56819 34.1681 3.63114 39.7034 3.80468C45.2387 3.97822 50.5009 6.24936 54.4235 10.1578C52.5326 8.10966 50.3786 6.32114 48.0177 4.83895C40.4263 2.65678 32.2836 3.51108 25.3107 7.2213C18.3378 10.9315 13.081 17.2069 10.6515 24.7211C8.222 32.2353 8.81007 40.3996 12.2915 47.4882C15.7728 54.5769 21.8747 60.0345 29.3074 62.7076C29.9879 62.7514 30.6764 62.7774 31.3688 62.7774C35.4885 62.778 39.5679 61.9672 43.374 60.3914C47.1803 58.8157 50.6388 56.5058 53.552 53.5936C56.4652 50.6815 58.7761 47.2242 60.3528 43.4191C61.9294 39.614 62.7408 35.5357 62.7408 31.4171Z" fill="url(#paint5_radial_314_432)"/>
<path d="M57.0514 37.8013C54.5329 41.5119 50.9305 44.3551 46.7357 45.9428C42.5409 47.5306 37.9583 47.7855 33.6132 46.6729C29.2682 45.5604 25.3723 43.1345 22.4574 39.7263C19.5425 36.3181 17.7505 32.0937 17.3262 27.6296C16.9017 23.1655 17.8655 18.6793 20.086 14.783C22.3064 10.8869 25.6753 7.77058 29.733 5.85955C33.7906 3.94852 38.3393 3.33581 42.7581 4.10507C47.1769 4.87432 51.2543 5.58275 54.427 8.75248C51.5983 5.68505 48.1858 3.2129 44.3892 1.48088C40.5926 -0.251127 36.4875 -0.818493 32.3163 -0.944468C28.145 -1.07044 23.9879 0.652805 20.0937 2.15255C16.1995 3.65229 12.6439 5.914 9.63521 8.80513C6.08635 15.0796 5.11379 22.4869 6.92269 29.4644C8.73159 36.442 13.1805 42.4444 19.3311 46.2056C25.4816 49.9669 32.8529 51.1928 39.8902 49.6248C46.9274 48.0569 53.0805 43.8176 57.0514 37.8013Z" fill="url(#paint6_radial_314_432)"/>
<path d="M39.026 3.77952C36.1472 3.75198 33.2914 4.29508 30.6237 5.37742C27.9561 6.45977 25.5294 8.05992 23.4839 10.0854C21.4385 12.1109 19.8148 14.5215 18.7067 17.1781C17.5986 19.8345 17.0281 22.6843 17.0281 25.5625C17.0281 28.4408 17.5986 31.2906 18.7067 33.947C19.8148 36.6036 21.4385 39.0142 23.4839 41.0397C25.5294 43.0652 27.9561 44.6653 30.6237 45.7477C33.2914 46.8301 36.1472 47.3731 39.026 47.3456C39.2416 47.3456 39.4551 47.3456 39.6666 47.3456C39.7345 47.3456 39.8003 47.3456 39.8662 47.3456C40.0138 47.3456 40.1635 47.3336 40.3112 47.3256C40.385 47.3256 40.4589 47.3256 40.5327 47.3117C40.6804 47.3018 40.826 47.2897 40.9717 47.2757C41.0376 47.2757 41.1054 47.2758 41.1713 47.2599C41.3708 47.2398 41.5704 47.218 41.7699 47.194C41.7819 47.194 41.7919 47.194 41.8038 47.194C42.0034 47.1681 42.2189 47.1381 42.4245 47.1042C42.4844 47.1042 42.5442 47.0843 42.6061 47.0743C42.7517 47.0503 42.8994 47.0264 43.0451 46.9985C43.1149 46.9845 43.1828 46.9726 43.2446 46.9586C43.3883 46.9307 43.53 46.9007 43.6717 46.8708L43.8593 46.8289C44.0468 46.787 44.2324 46.7431 44.418 46.6952C44.432 46.6952 44.444 46.6952 44.458 46.6853C44.6575 46.6334 44.8571 46.5795 45.0566 46.5216C45.1084 46.5077 45.1604 46.4917 45.2123 46.4758C45.3599 46.4319 45.5056 46.388 45.6513 46.3421L45.8368 46.2822L46.2579 46.1386L46.4236 46.0787C46.6032 46.0149 46.7827 45.9471 46.9623 45.8793L46.9943 45.8672C47.1939 45.7914 47.3795 45.7117 47.569 45.6318L47.6907 45.578C47.8384 45.5141 47.986 45.4483 48.1317 45.3784C48.1837 45.3546 48.2375 45.3306 48.2894 45.3047C48.429 45.2388 48.5668 45.173 48.7045 45.1051L48.8441 45.0353C49.0178 44.9476 49.1913 44.8578 49.363 44.766L49.381 44.7541C49.5666 44.6543 49.7501 44.5545 49.9317 44.4467L50.0136 44.3989C50.1612 44.3111 50.3088 44.2233 50.4566 44.1315L50.5843 44.0538C50.72 43.968 50.8557 43.8802 50.9834 43.7924L51.0971 43.7166C51.2647 43.6049 51.4304 43.4932 51.594 43.3774C51.7683 43.2538 51.94 43.1281 52.1089 43.0004L52.1547 42.9665C52.3025 42.8547 52.4481 42.741 52.5918 42.6253L52.6916 42.5455C52.8233 42.4397 52.953 42.3321 53.0907 42.2243L53.1804 42.1485C53.4978 41.8772 53.8091 41.5959 54.1104 41.3066L54.1224 41.2946C54.2661 41.1589 54.4057 41.0193 54.5455 40.8776L54.6192 40.7998C54.743 40.6761 54.8627 40.5484 54.9825 40.4208L55.0523 40.3449C55.4753 39.8861 55.8804 39.4072 56.2636 38.9145L56.3215 38.8367C56.4312 38.695 56.537 38.5514 56.6427 38.4077C56.6627 38.3818 56.6827 38.3559 56.7006 38.328C56.8204 38.1623 56.9381 37.9968 57.0518 37.8272C54.3805 41.8597 50.7031 45.1258 46.3828 47.3028C42.0627 49.4798 37.2491 50.4924 32.4178 50.2406C27.5865 49.9887 22.9044 48.4812 18.834 45.8669C14.7637 43.2525 11.446 39.6218 9.20852 35.3333C9.19257 34.9237 9.18458 34.5128 9.18458 34.1004C9.18142 30.104 9.96606 26.1462 11.4936 22.4531C13.0212 18.76 15.2616 15.4041 18.0872 12.5771C20.9126 9.75014 24.2676 7.50751 27.9604 5.97744C31.6532 4.44736 35.6113 3.65982 39.6087 3.65982L39.026 3.77952Z" fill="url(#paint7_radial_314_432)"/>
</g>
<path d="M33.4824 27.2246C34.9151 27.2246 36.0766 26.0634 36.0766 24.631C36.0766 23.1986 34.9151 22.0374 33.4824 22.0374C32.0497 22.0374 30.8882 23.1986 30.8882 24.631C30.8882 26.0634 32.0497 27.2246 33.4824 27.2246Z" fill="url(#paint8_linear_314_432)"/>
<path d="M34.8959 17.0274C36.7694 17.0274 38.2883 15.5089 38.2883 13.6358C38.2883 11.7627 36.7694 10.2442 34.8959 10.2442C33.0223 10.2442 31.5034 11.7627 31.5034 13.6358C31.5034 15.5089 33.0223 17.0274 34.8959 17.0274Z" fill="url(#paint9_linear_314_432)"/>
<path d="M41.2006 10.2516C42.1374 10.2516 42.8968 9.4924 42.8968 8.55584C42.8968 7.61928 42.1374 6.86005 41.2006 6.86005C40.2638 6.86005 39.5044 7.61928 39.5044 8.55584C39.5044 9.4924 40.2638 10.2516 41.2006 10.2516Z" fill="url(#paint10_linear_314_432)"/>
<path d="M29.6208 11.197C30.3372 11.197 30.9179 10.6164 30.9179 9.90018C30.9179 9.18398 30.3372 8.60339 29.6208 8.60339C28.9045 8.60339 28.3237 9.18398 28.3237 9.90018C28.3237 10.6164 28.9045 11.197 29.6208 11.197Z" fill="url(#paint11_linear_314_432)"/>
<path d="M27.1492 28.7106C27.7248 27.5237 28.0475 26.1915 28.0475 24.7839C28.0475 19.8082 24.0144 15.7747 19.0392 15.7747C14.3805 15.7747 10.5478 19.3113 10.0789 23.8465C7.80025 24.7989 3.80818 27.3448 2.94559 31.3502C2.01991 35.6482 8.80587 38.8838 12.9457 39.1196C13.6206 41.1377 16.1202 43.4148 19.7672 45.3382C21.2511 46.1209 22.5824 46.6539 23.8141 47.1471C25.6092 47.8657 27.193 48.4998 28.7311 49.6992C29.4623 50.2695 29.8881 53.0054 29.8881 54.0798C29.7919 54.4472 29.682 54.7971 29.5609 55.1825C29.3215 55.9448 29.0384 56.8459 28.7311 58.2952C28.2682 60.4773 28.5383 63.6126 28.7311 64.9075L27.9873 67.0565C28.3839 69.2385 34.7642 70.1249 37.8221 69.9493C38.3605 69.3336 38.3112 68.4049 38.2629 67.4934C38.2491 67.2336 38.2354 66.9752 38.2354 66.7259C38.2354 65.6017 35.9212 64.5493 34.7642 64.1636C35.3593 63.1718 37.2161 57.2483 38.0701 54.4105C37.8497 54.3829 38.0535 54.394 40.6321 54.6585C43.2106 54.9229 46.2146 54.5477 48.0878 53.8864C49.9611 53.2252 49.1446 51.5176 49.1446 51.5176C48.5496 50.3273 46.3622 49.8094 45.3429 49.6992C46.5826 45.9799 46.4173 41.2686 45.3429 39.4502C44.4834 37.9955 38.263 37.4114 35.2601 37.4665C35.1499 37.1359 34.632 36.1109 33.4419 34.6563C32.2517 33.2016 29.3096 30.9645 27.9873 30.0277L27.1492 28.7106Z" fill="url(#paint12_radial_314_432)"/>
<path d="M27.1492 28.7106C27.7248 27.5237 28.0475 26.1915 28.0475 24.7839C28.0475 19.8082 24.0144 15.7747 19.0392 15.7747C14.3805 15.7747 10.5478 19.3113 10.0789 23.8465C7.80025 24.7989 3.80818 27.3448 2.94559 31.3502C2.01991 35.6482 8.80587 38.8838 12.9457 39.1196C13.6206 41.1377 16.1202 43.4148 19.7672 45.3382C21.2511 46.1209 22.5824 46.6539 23.8141 47.1471C25.6092 47.8657 27.193 48.4998 28.7311 49.6992C29.4623 50.2695 29.8881 53.0054 29.8881 54.0798C29.7919 54.4472 29.682 54.7971 29.5609 55.1825C29.3215 55.9448 29.0384 56.8459 28.7311 58.2952C28.2682 60.4773 28.5383 63.6126 28.7311 64.9075L27.9873 67.0565C28.3839 69.2385 34.7642 70.1249 37.8221 69.9493C38.3605 69.3336 38.3112 68.4049 38.2629 67.4934C38.2491 67.2336 38.2354 66.9752 38.2354 66.7259C38.2354 65.6017 35.9212 64.5493 34.7642 64.1636C35.3593 63.1718 37.2161 57.2483 38.0701 54.4105C37.8497 54.3829 38.0535 54.394 40.6321 54.6585C43.2106 54.9229 46.2146 54.5477 48.0878 53.8864C49.9611 53.2252 49.1446 51.5176 49.1446 51.5176C48.5496 50.3273 46.3622 49.8094 45.3429 49.6992C46.5826 45.9799 46.4173 41.2686 45.3429 39.4502C44.4834 37.9955 38.263 37.4114 35.2601 37.4665C35.1499 37.1359 34.632 36.1109 33.4419 34.6563C32.2517 33.2016 29.3096 30.9645 27.9873 30.0277L27.1492 28.7106Z" fill="url(#paint13_linear_314_432)"/>
<path d="M23.7337 17.1065C23.6609 17.1691 23.5903 17.2359 23.5155 17.3063C23.1355 17.6647 22.6525 18.12 21.2812 18.6345C19.4285 19.3294 16.392 19.7011 15.1055 19.4117L14.3335 24.8112C15.2019 27.7066 18.2898 29.9264 22.9216 29.9264C25.6462 29.9264 27.0588 28.3915 27.718 27.2209C27.9328 26.4497 28.0477 25.6369 28.0477 24.7973C28.0477 21.5417 26.3211 18.6895 23.7337 17.1065Z" fill="url(#paint14_radial_314_432)"/>
<path d="M41.0705 54.7061C42.5047 52.196 45.1442 45.4098 44.0925 43.7511C42.7608 41.6509 40.968 38.6724 35.385 39.4409C34.002 39.7994 30.9425 43.2502 29.9043 43.7511C30.3535 43.5901 30.7491 43.4877 31.0631 43.4657C33.2656 43.3121 37.1584 43.7218 38.4901 45.8221C39.521 47.448 37.3041 52.0199 36.4094 54.45C36.8331 54.121 41.0705 54.7061 41.0705 54.7061Z" fill="url(#paint15_radial_314_432)"/>
<path d="M38.1344 54.4387C39.026 52.0605 40.4833 47.0707 39.4316 45.4121C38.0999 43.3118 34.2071 42.902 32.0046 43.0556C30.2426 43.1786 25.9093 45.839 23.9629 47.1537C26.2576 47.9555 28.0979 49.2042 28.7312 49.7283C29.4623 50.2985 29.8882 53.0344 29.8882 54.1089C29.792 54.4762 29.6821 54.8262 29.561 55.2116C29.3216 55.9738 29.0386 56.875 28.7312 58.3242C28.2684 60.5062 28.5383 63.6416 28.7312 64.9364L27.9873 67.0854C28.384 69.2676 34.7643 70.154 37.8222 69.9783C38.3605 69.3627 38.3113 68.434 38.263 67.5226V67.5224C38.2492 67.2626 38.2355 67.0042 38.2355 66.7549C38.2355 65.6308 35.9214 64.5784 34.7643 64.1927C35.3593 63.2007 37.2162 57.2773 38.0701 54.4395C37.9819 54.4285 37.9617 54.4236 38.1344 54.4387Z" fill="url(#paint16_radial_314_432)"/>
<path d="M38.1344 54.4387C39.026 52.0605 40.4833 47.0707 39.4316 45.4121C38.0999 43.3118 34.2071 42.902 32.0046 43.0556C30.2426 43.1786 25.9093 45.839 23.9629 47.1537C26.2576 47.9555 28.0979 49.2042 28.7312 49.7283C29.4623 50.2985 29.8882 53.0344 29.8882 54.1089C29.792 54.4762 29.6821 54.8262 29.561 55.2116C29.3216 55.9738 29.0386 56.875 28.7312 58.3242C28.2684 60.5062 28.5383 63.6416 28.7312 64.9364L27.9873 67.0854C28.384 69.2676 34.7643 70.154 37.8222 69.9783C38.3605 69.3627 38.3113 68.434 38.263 67.5226V67.5224C38.2492 67.2626 38.2355 67.0042 38.2355 66.7549C38.2355 65.6308 35.9214 64.5784 34.7643 64.1927C35.3593 63.2007 37.2162 57.2773 38.0701 54.4395C37.9819 54.4285 37.9617 54.4236 38.1344 54.4387Z" fill="url(#paint17_linear_314_432)"/>
<path d="M39.4704 45.4121C39.7149 45.7977 39.8237 46.3632 39.8357 47.0342C39.7791 46.5981 39.6657 46.2268 39.4819 45.9461C38.0345 43.7365 33.8037 43.3053 31.4099 43.467C30.6532 43.5181 29.4601 43.986 28.1631 44.6188C29.6853 43.7917 31.1759 43.1162 32.0433 43.0556C34.2458 42.902 38.1387 43.3118 39.4704 45.4121Z" fill="url(#paint18_radial_314_432)"/>
<path d="M26.611 31.8127L22.3891 34.912C21.7306 35.3954 21.5886 36.3211 22.0719 36.9796L23.7757 39.3009C24.259 39.9594 25.1846 40.1014 25.8431 39.618L30.065 36.5187C30.7235 36.0353 30.8656 35.1096 30.3823 34.4511L28.6785 32.1297C28.1951 31.4712 27.2695 31.3293 26.611 31.8127Z" fill="url(#paint19_radial_314_432)"/>
<path d="M26.611 31.8127L22.3891 34.912C21.7306 35.3954 21.5886 36.3211 22.0719 36.9796L23.7757 39.3009C24.259 39.9594 25.1846 40.1014 25.8431 39.618L30.065 36.5187C30.7235 36.0353 30.8656 35.1096 30.3823 34.4511L28.6785 32.1297C28.1951 31.4712 27.2695 31.3293 26.611 31.8127Z" fill="url(#paint20_linear_314_432)"/>
<path d="M26.452 31.6221L22.5481 34.488C21.8018 35.0358 21.6408 36.0849 22.1886 36.8312L23.659 38.8347C24.2068 39.581 25.2558 39.7418 26.0021 39.194L29.9061 36.3281C30.6524 35.7802 30.8133 34.7311 30.2656 33.9848L28.7951 31.9814C28.2474 31.2351 27.1983 31.0742 26.452 31.6221Z" fill="url(#paint21_radial_314_432)"/>
<path d="M16.2899 16.1844C13.363 17.4487 11.2396 20.2207 10.8984 23.5218C8.61979 24.4742 4.62772 27.02 3.76511 31.0254C2.83944 35.3233 9.62539 38.559 13.7652 38.7948C14.4401 40.8129 16.9397 43.09 20.5867 45.0134C22.0706 45.7962 23.4019 46.3291 24.6336 46.8222C26.4288 47.5408 28.0125 48.175 29.5506 49.3744C30.2818 49.9447 30.7076 52.6805 30.7076 53.7551C30.6118 54.1214 30.5021 54.4704 30.3813 54.8547L30.3804 54.8577L30.3801 54.8589C30.1407 55.6209 29.8577 56.5219 29.5506 57.9703C29.0878 60.1524 29.3578 63.2878 29.5506 64.5827L28.8068 66.7317C29.1783 68.7751 34.7974 69.6823 38.0212 69.6451C37.9659 69.7466 37.9002 69.8425 37.8221 69.9319C34.7642 70.1075 28.3839 69.221 27.9873 67.039L28.7311 64.89C28.5382 63.5951 28.2682 60.4598 28.7311 58.2778C29.0381 56.8292 29.3211 55.9282 29.5606 55.1663L29.5609 55.1651C29.6819 54.7796 29.7919 54.4297 29.8881 54.0624C29.8881 52.9879 29.4623 50.252 28.7311 49.6818C27.193 48.4823 25.6092 47.8482 23.8141 47.1296C22.5824 46.6365 21.2511 46.1035 19.7672 45.3208C16.1202 43.3973 13.6206 41.1203 12.9456 39.1021C8.80587 38.8664 2.01991 35.6307 2.94559 31.3327C3.80818 27.3273 7.80025 24.7815 10.0789 23.8291C10.4512 20.2272 12.9453 17.2552 16.2899 16.1844Z" fill="url(#paint22_linear_314_432)"/>
<path d="M35.4185 37.4966V37.5136C38.7826 37.6256 43.6935 38.2328 44.4665 39.4817C45.5917 41.3 45.7647 46.0113 44.4665 49.7308C45.534 49.8409 47.8248 50.3589 48.448 51.5491C48.448 51.5491 49.303 53.2567 47.3411 53.9179C45.9437 54.3889 43.9456 54.7149 41.9354 54.7678C44.1957 54.8316 46.5883 54.4769 48.1725 53.9177C50.0458 53.2565 49.2293 51.5489 49.2293 51.5489C48.6343 50.3587 46.4469 49.8408 45.4276 49.7306C46.6673 46.0111 46.502 41.2999 45.4276 39.4815C44.575 38.0386 38.4482 37.4523 35.4185 37.4966Z" fill="url(#paint23_radial_314_432)"/>
<path d="M16.3676 33.3904C13.6913 31.8285 11.8928 28.926 11.8928 25.6034C11.8928 20.6278 15.9261 16.5943 20.9013 16.5943C21.8314 16.5943 22.7286 16.7352 23.5728 16.997C22.2411 16.2199 20.6921 15.7747 19.0391 15.7747C14.064 15.7747 10.0308 19.8082 10.0308 24.7839C10.0308 28.8293 12.6968 32.252 16.3676 33.3904Z" fill="url(#paint24_linear_314_432)"/>
<defs>
<radialGradient id="paint0_radial_314_432" cx="0" cy="0" r="1" gradientUnits="userSpaceOnUse" gradientTransform="translate(26.2203 41.5401) rotate(90) scale(30.1054 30.1129)">
<stop offset="0.01" stop-color="#5D0AF5"/>
<stop offset="1" stop-color="#2F81FD"/>
</radialGradient>
<radialGradient id="paint1_radial_314_432" cx="0" cy="0" r="1" gradientUnits="userSpaceOnUse" gradientTransform="translate(35.9626 33.2186) rotate(90) scale(28.2001 28.2071)">
<stop offset="0.01" stop-color="#9ED5B9"/>
<stop offset="1" stop-color="#7253CA"/>
</radialGradient>
<radialGradient id="paint2_radial_314_432" cx="0" cy="0" r="1" gradientUnits="userSpaceOnUse" gradientTransform="translate(35.9626 33.2186) rotate(90) scale(28.2001 28.2071)">
<stop offset="0.01" stop-color="#9ED5B9"/>
<stop offset="1" stop-color="#7253CA"/>
</radialGradient>
<radialGradient id="paint3_radial_314_432" cx="0" cy="0" r="1" gradientUnits="userSpaceOnUse" gradientTransform="translate(31.5564 25.1566) rotate(90) scale(25.2934 25.2996)">
<stop offset="0.01" stop-color="#9ED5B9"/>
<stop offset="1" stop-color="#016496"/>
</radialGradient>
<radialGradient id="paint4_radial_314_432" cx="0" cy="0" r="1" gradientUnits="userSpaceOnUse" gradientTransform="translate(59.7917 25.2743) rotate(90) scale(7.58122 7.5831)">
<stop offset="0.01" stop-color="#9ED5B9"/>
<stop offset="1" stop-color="#016496"/>
</radialGradient>
<radialGradient id="paint5_radial_314_432" cx="0" cy="0" r="1" gradientUnits="userSpaceOnUse" gradientTransform="translate(40.2849 58.6875) rotate(90) scale(38.4487 38.4582)">
<stop offset="0.01" stop-color="#0797FF"/>
<stop offset="1" stop-color="#894EF6"/>
</radialGradient>
<radialGradient id="paint6_radial_314_432" cx="0" cy="0" r="1" gradientUnits="userSpaceOnUse" gradientTransform="translate(36.3297 30.3677) rotate(90) scale(40.3002 40.3101)">
<stop offset="0.01" stop-color="#9ED5B9"/>
<stop offset="1" stop-color="#2F81FD"/>
</radialGradient>
<radialGradient id="paint7_radial_314_432" cx="0" cy="0" r="1" gradientUnits="userSpaceOnUse" gradientTransform="translate(21.8928 41.3239) rotate(55.9674) scale(22.9104 25.9677)">
<stop offset="0.01" stop-color="#0797FF"/>
<stop offset="1" stop-color="#894EF6"/>
</radialGradient>
<linearGradient id="paint8_linear_314_432" x1="29.2755" y1="24.2121" x2="39.0919" y2="24.2121" gradientUnits="userSpaceOnUse">
<stop offset="0.01" stop-color="#0797FF"/>
<stop offset="0.744903" stop-color="#894EF6"/>
</linearGradient>
<linearGradient id="paint9_linear_314_432" x1="29.3947" y1="13.0879" x2="42.2313" y2="13.0879" gradientUnits="userSpaceOnUse">
<stop offset="0.01" stop-color="#0797FF"/>
<stop offset="0.744903" stop-color="#894EF6"/>
</linearGradient>
<linearGradient id="paint10_linear_314_432" x1="38.45" y1="8.2819" x2="44.8683" y2="8.2819" gradientUnits="userSpaceOnUse">
<stop offset="0.01" stop-color="#0797FF"/>
<stop offset="0.744903" stop-color="#894EF6"/>
</linearGradient>
<linearGradient id="paint11_linear_314_432" x1="27.5175" y1="9.69073" x2="32.4256" y2="9.69073" gradientUnits="userSpaceOnUse">
<stop offset="0.01" stop-color="#0797FF"/>
<stop offset="0.744903" stop-color="#894EF6"/>
</linearGradient>
<radialGradient id="paint12_radial_314_432" cx="0" cy="0" r="1" gradientUnits="userSpaceOnUse" gradientTransform="translate(46.1077 38.4955) scale(30.2149 38.9118)">
<stop offset="0.01" stop-color="#0797FF"/>
<stop offset="1" stop-color="#894EF6"/>
</radialGradient>
<linearGradient id="paint13_linear_314_432" x1="4.28946" y1="33.498" x2="16.024" y2="35.2619" gradientUnits="userSpaceOnUse">
<stop stop-color="#4350FA"/>
<stop offset="1" stop-color="#5A00FF" stop-opacity="0"/>
</linearGradient>
<radialGradient id="paint14_radial_314_432" cx="0" cy="0" r="1" gradientUnits="userSpaceOnUse" gradientTransform="translate(27.099 22.4809) rotate(165.283) scale(13.1985 13.6482)">
<stop stop-color="#4EF6EC"/>
<stop offset="1" stop-color="#0797FF"/>
</radialGradient>
<radialGradient id="paint15_radial_314_432" cx="0" cy="0" r="1" gradientUnits="userSpaceOnUse" gradientTransform="translate(37.0753 48.0467) rotate(-33.9699) scale(5.86735 7.09234)">
<stop stop-color="#2120AD"/>
<stop offset="1" stop-color="#4B4AFA" stop-opacity="0"/>
</radialGradient>
<radialGradient id="paint16_radial_314_432" cx="0" cy="0" r="1" gradientUnits="userSpaceOnUse" gradientTransform="translate(38.7026 54.3347) scale(10.2979 19.3663)">
<stop offset="0.01" stop-color="#0797FF"/>
<stop offset="1" stop-color="#894EF6"/>
</radialGradient>
<linearGradient id="paint17_linear_314_432" x1="28.8289" y1="45.1781" x2="41.6738" y2="62.2954" gradientUnits="userSpaceOnUse">
<stop stop-color="#6265F9"/>
<stop offset="1" stop-color="#5A00FF" stop-opacity="0"/>
</linearGradient>
<radialGradient id="paint18_radial_314_432" cx="0" cy="0" r="1" gradientUnits="userSpaceOnUse" gradientTransform="translate(39.0282 44.7067) rotate(174.49) scale(10.9156 4.39079)">
<stop stop-color="#4EF6EC"/>
<stop offset="1" stop-color="#0797FF"/>
</radialGradient>
<radialGradient id="paint19_radial_314_432" cx="0" cy="0" r="1" gradientUnits="userSpaceOnUse" gradientTransform="translate(28.7944 33.2458) rotate(-36.2824) scale(5.32973 4.19122)">
<stop offset="0.01" stop-color="#0797FF"/>
<stop offset="1" stop-color="#894EF6"/>
</radialGradient>
<linearGradient id="paint20_linear_314_432" x1="22.5296" y1="37.177" x2="24.4291" y2="36.3922" gradientUnits="userSpaceOnUse">
<stop stop-color="#4350FA"/>
<stop offset="1" stop-color="#5A00FF" stop-opacity="0"/>
</linearGradient>
<radialGradient id="paint21_radial_314_432" cx="0" cy="0" r="1" gradientUnits="userSpaceOnUse" gradientTransform="translate(28.7944 32.9385) rotate(132.401) scale(7.78006 6.30047)">
<stop stop-color="#4EF6EC"/>
<stop offset="1" stop-color="#0797FF"/>
</radialGradient>
<linearGradient id="paint22_linear_314_432" x1="2.29643" y1="29.1445" x2="41.6402" y2="60.5169" gradientUnits="userSpaceOnUse">
<stop offset="0.01" stop-color="#C2A4FF"/>
<stop offset="1" stop-color="#894EF6"/>
</linearGradient>
<radialGradient id="paint23_radial_314_432" cx="0" cy="0" r="1" gradientUnits="userSpaceOnUse" gradientTransform="translate(48.2982 51.1227) rotate(150.309) scale(17.1645 31.0844)">
<stop stop-color="#4EF6EC"/>
<stop offset="1" stop-color="#0797FF"/>
</radialGradient>
<linearGradient id="paint24_linear_314_432" x1="17.3735" y1="13.8793" x2="11.8408" y2="27.9148" gradientUnits="userSpaceOnUse">
<stop offset="0.01" stop-color="#0797FF"/>
<stop offset="1" stop-color="#894EF6"/>
</linearGradient>
</defs>
</svg>
