<svg width="73" height="21" viewBox="0 0 73 21" fill="none" xmlns="http://www.w3.org/2000/svg">
<path d="M7.59397 8.88652H6.77743L11.9055 0.509096H13.6529V9.78873H11.9055V2.94362L12.3065 3.05818L8.16693 9.78873H6.23317L2.07927 3.08677L2.49464 2.97221V9.78873H0.74707V0.509096H2.49464L7.59397 8.88652ZM20.6952 9.96058C19.5397 9.96058 18.5418 9.7696 17.7015 9.38776C16.8611 8.99635 16.2118 8.44266 15.7535 7.72659C15.3047 7.01062 15.0802 6.15612 15.0802 5.16321C15.0802 4.15126 15.3047 3.28731 15.7535 2.57124C16.2118 1.85526 16.8611 1.30631 17.7015 0.924462C18.5418 0.532955 19.5397 0.33725 20.6952 0.33725C21.8601 0.33725 22.858 0.532955 23.6889 0.924462C24.5292 1.30631 25.1737 1.85526 25.6226 2.57124C26.081 3.28731 26.3102 4.15126 26.3102 5.16321C26.3102 6.15612 26.081 7.01062 25.6226 7.72659C25.1737 8.44266 24.5292 8.99635 23.6889 9.38776C22.858 9.7696 21.8601 9.96058 20.6952 9.96058ZM20.6952 8.42826C21.44 8.42826 22.0942 8.30897 22.6576 8.07028C23.2305 7.83159 23.6793 7.4736 24.004 6.99622C24.3287 6.50938 24.491 5.8984 24.491 5.16321C24.491 4.42811 24.3287 3.81714 24.004 3.33019C23.6793 2.84335 23.2305 2.48053 22.6576 2.24194C22.0942 1.99369 21.44 1.86956 20.6952 1.86956C19.9694 1.86956 19.3153 1.99369 18.7328 2.24194C18.1599 2.48053 17.7062 2.84335 17.372 3.33019C17.0474 3.81714 16.885 4.42811 16.885 5.16321C16.885 5.8984 17.0474 6.50938 17.372 6.99622C17.7062 7.4736 18.1599 7.83159 18.7328 8.07028C19.3153 8.30897 19.9694 8.42826 20.6952 8.42826ZM32.9947 9.96058C31.8393 9.96058 30.8414 9.7696 30.001 9.38776C29.1607 8.99635 28.5113 8.44266 28.0529 7.72659C27.6041 7.01062 27.3798 6.15612 27.3798 5.16321C27.3798 4.15126 27.6041 3.28731 28.0529 2.57124C28.5113 1.85526 29.1607 1.30631 30.001 0.924462C30.8414 0.532955 31.8393 0.33725 32.9947 0.33725C34.1597 0.33725 35.1576 0.532955 35.9885 0.924462C36.8288 1.30631 37.4733 1.85526 37.9221 2.57124C38.3805 3.28731 38.6097 4.15126 38.6097 5.16321C38.6097 6.15612 38.3805 7.01062 37.9221 7.72659C37.4733 8.44266 36.8288 8.99635 35.9885 9.38776C35.1576 9.7696 34.1597 9.96058 32.9947 9.96058ZM32.9947 8.42826C33.7395 8.42826 34.3936 8.30897 34.9571 8.07028C35.5301 7.83159 35.9789 7.4736 36.3035 6.99622C36.6282 6.50938 36.7906 5.8984 36.7906 5.16321C36.7906 4.42811 36.6282 3.81714 36.3035 3.33019C35.9789 2.84335 35.5301 2.48053 34.9571 2.24194C34.3936 1.99369 33.7395 1.86956 32.9947 1.86956C32.269 1.86956 31.6148 1.99369 31.0323 2.24194C30.4594 2.48053 30.0058 2.84335 29.6716 3.33019C29.3469 3.81714 29.1845 4.42811 29.1845 5.16321C29.1845 5.8984 29.3469 6.50938 29.6716 6.99622C30.0058 7.4736 30.4594 7.83159 31.0323 8.07028C31.6148 8.30897 32.269 8.42826 32.9947 8.42826ZM49.0185 7.9987L48.4741 8.21353V0.509096H50.236V9.78873H48.4741L41.2549 2.3565L41.7992 2.14167V9.78873H40.0517V0.509096H41.7992L49.0185 7.9987Z" fill="url(#paint0_radial_314_433)"/>
<path d="M10.4759 17.3435H13.5556C13.6033 17.6013 13.7752 17.8256 14.0712 18.0166C14.3767 18.2076 14.7778 18.3556 15.2744 18.4606C15.771 18.556 16.3439 18.6037 16.9933 18.6037C17.614 18.6037 18.1105 18.5703 18.483 18.5034C18.8554 18.4367 19.1227 18.3316 19.2852 18.1884C19.4475 18.0452 19.5286 17.859 19.5286 17.6299C19.5286 17.4199 19.4092 17.2576 19.1706 17.1431C18.9318 17.0285 18.5212 16.9425 17.9387 16.8853C17.3561 16.8184 16.554 16.766 15.5322 16.7278C14.7588 16.6895 14.0712 16.618 13.4696 16.513C12.8776 16.3984 12.3762 16.2409 11.9656 16.0404C11.5549 15.8303 11.2446 15.5726 11.0346 15.2671C10.834 14.9521 10.7338 14.5845 10.7338 14.1644C10.7338 13.5152 10.939 12.9662 11.3496 12.5176C11.7698 12.0689 12.3954 11.7299 13.2261 11.5008C14.0664 11.2622 15.1073 11.1428 16.3487 11.1428C18.1821 11.1428 19.5859 11.4483 20.56 12.0593C21.534 12.6704 22.0162 13.5295 22.0067 14.637H19.0846C19.0368 14.2169 18.7647 13.9066 18.2681 13.7062C17.7715 13.5056 17.0935 13.4055 16.2341 13.4055C15.4033 13.4055 14.7635 13.477 14.3147 13.6202C13.8659 13.7635 13.6415 14.0069 13.6415 14.3506C13.6415 14.5033 13.6988 14.6322 13.8134 14.7372C13.9375 14.8422 14.1428 14.9329 14.4293 15.0094C14.7158 15.0761 15.112 15.1334 15.6182 15.1812C16.1339 15.2194 16.7832 15.2575 17.5663 15.2958C18.3875 15.3339 19.0989 15.4103 19.7005 15.5249C20.3021 15.6299 20.7987 15.7826 21.1902 15.9831C21.5817 16.1836 21.8729 16.4414 22.064 16.7564C22.255 17.0715 22.3504 17.4485 22.3504 17.8877C22.3504 18.5369 22.1547 19.0858 21.7632 19.5345C21.3811 19.9737 20.7747 20.303 19.944 20.5227C19.1133 20.7423 18.0294 20.852 16.6924 20.852C15.8713 20.852 15.1312 20.79 14.4723 20.6658C13.8134 20.5513 13.2308 20.3843 12.7247 20.1646C12.2282 19.9355 11.808 19.673 11.4642 19.3771C11.13 19.0715 10.877 18.747 10.7051 18.4033C10.5428 18.0596 10.4663 17.7063 10.4759 17.3435ZM26.0216 14.8375H34.9598V17.0858H26.0216V14.8375ZM34.6016 11.4006H37.4664V20.6086H34.6016V11.4006ZM23.5436 11.4006H26.4227V20.6086H23.5436V11.4006ZM39.3738 11.4006H42.2386V20.6086H39.3738V11.4006ZM56.4176 18.1884L55.4006 18.7326V11.4006H58.2656V20.6086H55.4006L45.9898 13.921L47.0211 13.3625V20.6086H44.142V11.4006H47.0211L56.4176 18.1884ZM62.8039 16.7421V18.3603H72.1142V20.6086H59.9243V11.4006H72.1004V13.6489H62.8039V15.2814H70.4101V16.7421H62.8039Z" fill="url(#paint1_radial_314_433)"/>
<defs>
<radialGradient id="paint0_radial_314_433" cx="0" cy="0" r="1" gradientUnits="userSpaceOnUse" gradientTransform="translate(47.8218 3.76932) scale(33.6691 12.3168)">
<stop offset="0.01" stop-color="#0797FF"/>
<stop offset="1" stop-color="#894EF6"/>
</radialGradient>
<radialGradient id="paint1_radial_314_433" cx="0" cy="0" r="1" gradientUnits="userSpaceOnUse" gradientTransform="translate(68.6311 14.5892) scale(40.98 12.3168)">
<stop offset="0.01" stop-color="#0797FF"/>
<stop offset="1" stop-color="#894EF6"/>
</radialGradient>
</defs>
</svg>
