<svg width="160" height="160" viewBox="0 0 160 160" fill="none" xmlns="http://www.w3.org/2000/svg">
<path d="M76.5494 160C76.5381 160 76.5307 160 76.5194 160C75.9087 159.989 61.3668 159.686 44.8878 152.798C35.172 148.739 26.8276 143.222 20.0831 136.398C11.6375 127.856 5.70988 117.253 2.46877 104.886C-2.84813 84.6052 0.48661 62.7415 11.8586 43.3239C23.7776 22.9709 43.4565 7.67691 64.4918 2.40976C88.888 -3.69801 115.589 2.00081 134.177 17.2797C142.604 24.2054 149.105 32.782 153.5 42.7672C158.266 53.5931 160.428 65.8427 159.93 79.1828C159.33 95.2304 154.8 109.192 146.471 120.676C139.074 130.874 128.872 138.663 116.964 143.199C93.7965 152.025 68.0851 147.141 52.9849 131.044C52.273 130.287 52.303 129.086 53.0561 128.367C53.8055 127.647 54.9933 127.678 55.7052 128.439C69.7787 143.441 93.8677 147.951 115.641 139.655C126.867 135.38 136.482 128.041 143.447 118.438C151.327 107.575 155.613 94.3178 156.187 79.039C156.663 66.2857 154.609 54.6003 150.079 44.3084C145.924 34.8722 139.779 26.7689 131.817 20.2219C114.124 5.67759 88.6707 0.262797 65.3948 6.09036C45.3112 11.119 26.5053 25.7617 15.0847 45.255C4.22605 63.7904 1.03366 84.628 6.09203 103.921C9.16451 115.633 14.7624 125.659 22.7359 133.725C29.1282 140.192 37.0642 145.433 46.3191 149.299C62.1424 155.914 76.4332 156.213 76.5756 156.213C77.6098 156.229 78.4341 157.092 78.4191 158.137C78.4079 159.175 77.5723 160 76.5494 160Z" fill="#7843E9"/>
<path d="M65.6568 41.0773C65.6742 40.8034 65.5519 40.5772 65.5163 40.3106C65.4602 39.8912 65.5454 39.4414 65.5466 39.0188C65.5504 37.7478 65.6868 36.5441 65.9842 35.2906C66.4466 33.342 67.8057 31.7727 69.3157 30.5362C73.3714 27.2152 79.1272 27.272 84.0625 28.1097C91.708 29.4073 98.3369 33.8172 103.009 39.9251C105.204 42.7946 106.638 45.996 106.613 49.6969C106.603 51.343 106.248 52.9643 105.973 54.5807C105.675 56.3369 105.341 58.0883 104.597 59.7235C103.966 61.1113 103.003 62.313 102.334 63.6708C101.869 64.6135 101.161 65.8172 100.403 66.5538C99.6231 67.3117 98.8488 68.2382 97.9861 68.8884C96.8502 69.7445 95.6496 70.4986 94.4739 71.2953C93.0519 72.2588 91.4922 72.9322 89.9799 73.737C88.2835 74.6399 86.4977 75.3839 84.7452 76.1663C83.1963 76.8578 81.5993 77.4507 80.1947 78.4222C78.942 79.2885 77.8515 80.2763 76.7127 81.2812C74.7383 83.0235 73.3935 85.2842 72.2389 87.6107C71.624 88.8496 71.4262 90.5897 71.4667 91.9746C71.5086 93.4039 71.1498 94.8433 70.9112 96.2495" stroke="#F8FAFC" stroke-width="5" stroke-linecap="round"/>
<g filter="url(#filter0_d_146_82)">
<path d="M69.1162 112.657C66.6574 112.345 65.9376 120.237 70.4725 117.403C71.0421 117.047 71.6101 117.528 72.179 116.972C72.615 116.546 73.0649 115.255 73.0814 114.627C73.0936 114.162 73.1493 112.28 72.9023 112.003C72.6131 111.678 71.4012 110.473 71.1318 110.405C69.8679 110.085 66.2974 109.006 65.1386 109.628C64.2659 110.097 64.2643 112.881 64.7377 113.548C65.4257 114.517 65.6333 116.074 66.4762 116.749C67.4281 117.511 69.1498 117.851 70.3616 118.057" stroke="#F8FAFC" stroke-width="4" stroke-linecap="round" shape-rendering="crispEdges"/>
</g>
<defs>
<filter id="filter0_d_146_82" x="58.4219" y="107.438" width="20.6733" height="20.6189" filterUnits="userSpaceOnUse" color-interpolation-filters="sRGB">
<feFlood flood-opacity="0" result="BackgroundImageFix"/>
<feColorMatrix in="SourceAlpha" type="matrix" values="0 0 0 0 0 0 0 0 0 0 0 0 0 0 0 0 0 0 127 0" result="hardAlpha"/>
<feOffset dy="4"/>
<feGaussianBlur stdDeviation="2"/>
<feComposite in2="hardAlpha" operator="out"/>
<feColorMatrix type="matrix" values="0 0 0 0 0 0 0 0 0 0 0 0 0 0 0 0 0 0 0.25 0"/>
<feBlend mode="normal" in2="BackgroundImageFix" result="effect1_dropShadow_146_82"/>
<feBlend mode="normal" in="SourceGraphic" in2="effect1_dropShadow_146_82" result="shape"/>
</filter>
</defs>
</svg>
