<svg width="100" height="100" viewBox="0 0 100 100" fill="none" xmlns="http://www.w3.org/2000/svg">
<path d="M37.5 12.5H9.375C4.20625 12.5 0 16.7063 0 21.875V50C0 55.1688 4.20625 59.375 9.375 59.375H21.9906L17.2469 83.7812C17.1594 84.2334 17.1729 84.6992 17.2864 85.1455C17.4 85.5918 17.6107 86.0075 17.9037 86.3628C18.1966 86.7181 18.5644 87.0043 18.9808 87.2009C19.3973 87.3975 19.852 87.4996 20.3125 87.5H30.4375C33.1562 87.5 35.5687 85.7219 36.3937 83.1469L45.4875 61.5688C45.5406 61.4438 45.5844 61.3188 45.6219 61.1938C46.4531 58.1969 46.875 55.1 46.875 51.9906V21.875C46.875 16.7063 42.6688 12.5 37.5 12.5ZM90.625 12.5H62.5C57.3312 12.5 53.125 16.7063 53.125 21.875V50C53.125 55.1688 57.3312 59.375 62.5 59.375H75.1156L70.3719 83.7812C70.2826 84.2336 70.2949 84.7001 70.4077 85.1471C70.5206 85.5941 70.7312 86.0105 71.0245 86.3662C71.3178 86.722 71.6863 87.0082 72.1036 87.2043C72.5209 87.4003 72.9765 87.5013 73.4375 87.5H83.5625C86.2812 87.5 88.6969 85.7219 89.5156 83.1469L98.6156 61.5688C98.6656 61.4438 98.7094 61.3188 98.7469 61.1906C99.5781 58.1938 100 55.0969 100 51.9906V21.875C100 16.7063 95.7937 12.5 90.625 12.5Z" fill="#1A1B41"/>
</svg>
