<svg width="280" height="34" viewBox="0 0 280 34" fill="none" xmlns="http://www.w3.org/2000/svg">
<path fill-rule="evenodd" clip-rule="evenodd" d="M28.9294 0C21.2144 0 16.3938 3.77803 14.4641 11.3341C17.3574 7.55605 20.7326 6.13957 24.5895 7.08352C26.7901 7.62196 28.3637 9.1859 30.104 10.9174C32.9406 13.737 36.2239 17 43.3936 17C51.1075 17 55.9293 13.222 57.8577 5.66704C54.9656 9.44506 51.5905 10.8615 47.7335 9.91648C45.5318 9.37804 43.9582 7.8141 42.2179 6.08372C39.3813 3.26193 36.0992 0 28.9294 0ZM14.4641 17C6.75024 17 1.92848 20.778 0 28.3341C2.89328 24.5561 6.2684 23.1396 10.1242 24.0835C12.3259 24.622 13.8996 26.1859 15.6398 27.9174C18.4764 30.737 21.7586 34 28.9294 34C36.6433 34 41.4651 30.2231 43.3936 22.667C40.5003 26.4451 37.1252 27.8615 33.2682 26.9176C31.0676 26.378 29.494 24.8141 27.7538 23.0837C24.9172 20.2642 21.6339 17 14.4641 17Z" fill="#38BDF8"/>
<path fill-rule="evenodd" clip-rule="evenodd" d="M86.7826 14.3268H81.7341V23.897C81.7341 26.4495 83.4438 26.4093 86.7826 26.2496V30.1181C80.0233 30.9157 77.3364 29.0814 77.3364 23.897V14.3268H73.5905V10.179H77.3364V4.82363L81.7341 3.54679V10.179H86.7826V14.3268ZM106.027 10.179H110.423V30.1181H106.027V27.2471C104.479 29.3596 102.077 30.6364 98.9011 30.6364C93.3639 30.6364 88.7633 26.0507 88.7633 20.148C88.7633 14.2073 93.3639 9.66066 98.9011 9.66066C102.077 9.66066 104.479 10.9364 106.027 13.0108V10.179ZM99.5938 26.5288C103.258 26.5288 106.027 23.8567 106.027 20.148C106.027 16.4392 103.258 13.7682 99.5938 13.7682C95.9296 13.7682 93.161 16.4403 93.161 20.148C93.161 23.8567 95.9296 26.5288 99.5938 26.5288ZM117.752 7.18853C116.205 7.18853 114.943 5.9128 114.943 4.43711C114.947 3.70578 115.245 3.00564 115.771 2.48996C116.297 1.97429 117.009 1.6851 117.752 1.6857C118.494 1.68481 119.207 1.97387 119.733 2.48957C120.26 3.00527 120.557 3.70558 120.561 4.43711C120.561 5.91168 119.299 7.18853 117.752 7.18853ZM115.553 30.1181V10.179H119.951V30.1181H115.553ZM125.04 30.1181V1.00539H129.437V30.117H125.04V30.1181ZM157.979 10.179H162.62L156.228 30.1181H151.912L147.678 16.6794L143.402 30.1181H139.087L132.694 10.179H137.336L141.286 23.9361L145.561 10.179H149.755L153.988 23.9361L157.979 10.179ZM168.076 7.18853C166.528 7.18853 165.266 5.9128 165.266 4.43711C165.27 3.70558 165.568 3.00527 166.094 2.48957C166.621 1.97387 167.333 1.68481 168.076 1.6857C168.818 1.68481 169.531 1.97387 170.057 2.48957C170.584 3.00527 170.882 3.70558 170.885 4.43711C170.885 5.91168 169.623 7.18853 168.076 7.18853ZM165.877 30.1181V10.179H170.274V30.1181H165.877ZM186.071 9.66066C190.631 9.66066 193.889 12.6914 193.889 17.8758V30.117H189.492V18.3137C189.492 15.283 187.701 13.6889 184.932 13.6889C182.041 13.6889 179.761 15.3634 179.761 19.4308V30.1181H175.363V10.179H179.761V12.7316C181.105 10.6582 183.303 9.66066 186.071 9.66066ZM214.734 2.20403H219.132V30.117H214.734V27.246C213.188 29.3596 210.786 30.6353 207.61 30.6353C202.073 30.6353 197.472 26.0496 197.472 20.1469C197.472 14.2061 202.073 9.65955 207.61 9.65955C210.786 9.65955 213.188 10.9353 214.734 13.0097V2.20403ZM208.302 26.5288C211.966 26.5288 214.734 23.8567 214.734 20.148C214.734 16.4392 211.966 13.7682 208.302 13.7682C204.637 13.7682 201.869 16.4403 201.869 20.148C201.869 23.8567 204.637 26.5288 208.302 26.5288ZM233.871 30.6364C227.722 30.6364 223.122 26.0507 223.122 20.148C223.122 14.2073 227.722 9.66066 233.871 9.66066C237.86 9.66066 241.322 11.6938 242.95 14.8049L239.163 16.9587C238.267 15.0842 236.273 13.8878 233.83 13.8878C230.247 13.8878 227.52 16.5599 227.52 20.148C227.52 23.7372 230.247 26.4093 233.83 26.4093C236.273 26.4093 238.267 25.1727 239.245 23.3384L243.031 25.452C241.322 28.6022 237.86 30.6364 233.871 30.6364ZM250.278 15.6818C250.278 19.3113 261.231 17.1173 261.231 24.4957C261.231 28.4838 257.688 30.6364 253.292 30.6364C249.22 30.6364 246.288 28.8412 244.986 25.9703L248.772 23.8176C249.423 25.6117 251.052 26.6886 253.292 26.6886C255.246 26.6886 256.752 26.0507 256.752 24.4544C256.752 20.9065 245.8 22.9005 245.8 15.7623C245.8 12.0133 249.098 9.66066 253.251 9.66066C256.59 9.66066 259.358 11.1766 260.783 13.8084L257.078 15.8416C256.345 14.2866 254.92 13.5683 253.251 13.5683C251.662 13.5683 250.278 14.2464 250.278 15.6818ZM269.048 15.6818C269.048 19.3113 280 17.1173 280 24.4957C280 28.4838 276.458 30.6364 272.06 30.6364C267.989 30.6364 265.059 28.8412 263.755 25.9703L267.541 23.8176C268.193 25.6117 269.821 26.6886 272.06 26.6886C274.015 26.6886 275.522 26.0507 275.522 24.4544C275.522 20.9065 264.57 22.9005 264.57 15.7623C264.57 12.0133 267.867 9.66066 272.021 9.66066C275.358 9.66066 278.127 11.1766 279.552 13.8084L275.847 15.8416C275.115 14.2866 273.69 13.5683 272.021 13.5683C270.432 13.5683 269.048 14.2464 269.048 15.6818Z" fill="white"/>
</svg>
